<svg width="24" height="24" viewBox="0 0 24 24" fill="none" xmlns="http://www.w3.org/2000/svg">
<g clip-path="url(#clip0_22_922)">
<path d="M0 8.68571C0 5.64543 0 4.12529 0.591679 2.96405C1.11213 1.9426 1.9426 1.11213 2.96405 0.591679C4.12529 0 5.64543 0 8.68571 0H15.3143C18.3546 0 19.8747 0 21.0359 0.591679C22.0574 1.11213 22.8879 1.9426 23.4083 2.96405C24 4.12529 24 5.64543 24 8.68571V15.3143C24 18.3546 24 19.8747 23.4083 21.0359C22.8879 22.0574 22.0574 22.8879 21.0359 23.4083C19.8747 24 18.3546 24 15.3143 24H8.68571C5.64543 24 4.12529 24 2.96405 23.4083C1.9426 22.8879 1.11213 22.0574 0.591679 21.0359C0 19.8747 0 18.3546 0 15.3143V8.68571Z" fill="#1E40AB"/>
<path d="M11.6301 15.0825H7.91098L7.15429 17.4934C7.13328 17.583 7.0508 17.6464 6.96108 17.642H5.07738C4.96996 17.642 4.9324 17.5815 4.96468 17.4604L8.18466 7.94897C8.21689 7.84991 8.2491 7.73708 8.28129 7.61046C8.32341 7.39014 8.34497 7.16622 8.34569 6.94171C8.33647 6.87539 8.39476 6.8168 8.45839 6.8261H11.0183C11.0933 6.8261 11.1362 6.85363 11.1471 6.90868L14.8018 17.4769C14.834 17.587 14.8018 17.6421 14.7052 17.642H12.6122C12.5387 17.6503 12.4686 17.6 12.4512 17.5264L11.6301 15.0825ZM8.49057 13.0019H11.0344C10.6164 11.5738 10.1448 10.1644 9.7625 8.72509C9.35005 10.1668 8.90005 11.6027 8.49057 13.0019Z" fill="white"/>
<path d="M16.9751 8.57642C16.8109 8.58318 16.6471 8.55432 16.4945 8.49172C16.3419 8.42912 16.204 8.33419 16.0896 8.21314C15.9755 8.08684 15.887 7.93867 15.8289 7.77714C15.7709 7.61561 15.7446 7.44391 15.7515 7.27191C15.7456 7.10161 15.7748 6.93196 15.8373 6.77404C15.8997 6.61612 15.9939 6.47348 16.1137 6.35544C16.2324 6.23862 16.3724 6.1471 16.5258 6.08616C16.6792 6.02522 16.8428 5.99608 17.0073 6.00042C17.3937 6.00042 17.6969 6.11876 17.9169 6.35544C18.028 6.47844 18.1143 6.6227 18.1709 6.77996C18.2276 6.93722 18.2534 7.10439 18.247 7.27191C18.2537 7.44458 18.2265 7.61688 18.1671 7.77857C18.1076 7.94026 18.0171 8.08804 17.9008 8.21314C17.7793 8.33596 17.6344 8.43165 17.475 8.49418C17.3157 8.5567 17.1455 8.5847 16.9751 8.57642ZM15.8642 17.4768V9.58368C15.8642 9.48462 15.9069 9.43507 15.993 9.43507H17.9733C18.0591 9.43507 18.102 9.48461 18.1021 9.58368V17.4768C18.1021 17.587 18.0592 17.642 17.9733 17.642H16.0091C15.9125 17.642 15.8642 17.5869 15.8642 17.4768Z" fill="white"/>
</g>
<defs>
<clipPath id="clip0_22_922">
<rect width="24" height="24" fill="white"/>
</clipPath>
</defs>
</svg>
