<svg width="24" height="24" viewBox="0 0 24 24" fill="none" xmlns="http://www.w3.org/2000/svg">
<g clip-path="url(#clip0_22_923)">
<path d="M0 8.68571C0 5.64543 0 4.12529 0.591679 2.96405C1.11213 1.9426 1.9426 1.11213 2.96405 0.591679C4.12529 0 5.64543 0 8.68571 0H15.3143C18.3546 0 19.8747 0 21.0359 0.591679C22.0574 1.11213 22.8879 1.9426 23.4083 2.96405C24 4.12529 24 5.64543 24 8.68571V15.3143C24 18.3546 24 19.8747 23.4083 21.0359C22.8879 22.0574 22.0574 22.8879 21.0359 23.4083C19.8747 24 18.3546 24 15.3143 24H8.68571C5.64543 24 4.12529 24 2.96405 23.4083C1.9426 22.8879 1.11213 22.0574 0.591679 21.0359C0 19.8747 0 18.3546 0 15.3143V8.68571Z" fill="#1E40AB"/>
<path d="M5.14285 17.5854V7.0315C5.14285 6.95971 5.17285 6.91868 5.24285 6.91868C6.27625 6.91868 7.30917 6.85714 8.34285 6.85714C10.0201 6.85714 11.8363 7.43065 12.4729 9.18535C12.6229 9.61612 12.7029 10.0571 12.7029 10.5187C12.7029 11.4007 12.5029 12.1289 12.1029 12.7033C10.9855 14.3077 9.04885 14.2828 7.31285 14.2828V17.5751C7.32643 17.6726 7.24337 17.7187 7.16285 17.7187H5.26285C5.18285 17.7187 5.14285 17.6777 5.14285 17.5854ZM7.32285 8.89817V12.3443C8.01118 12.3948 8.73148 12.4002 9.39285 12.1802C10.123 11.9696 10.5229 11.3376 10.5229 10.5802C10.5432 9.93488 10.1915 9.31568 9.59285 9.08278C8.93945 8.8111 8.02817 8.79483 7.32285 8.89817Z" fill="white"/>
<path d="M18.94 11.6635C18.6374 11.504 18.3152 11.3874 17.982 11.3167C17.5539 11.2159 15.8655 10.8632 15.8649 11.746C15.8799 12.2389 16.6623 12.4804 17.008 12.6212C18.2215 13.0378 19.5949 13.7826 19.5679 15.2798C19.605 17.1436 17.7992 17.8886 16.2513 17.8888C15.4454 17.8971 14.6059 17.7723 13.8685 17.4264C13.7981 17.3891 13.7527 17.3095 13.7558 17.2283V15.4449C13.7478 15.3734 13.8246 15.3109 13.8846 15.3623C14.6072 15.7993 15.4637 16.0115 16.2996 16.0228C16.6686 16.0228 17.3999 15.9871 17.3944 15.4449C17.3944 14.9246 16.5195 14.6854 16.1708 14.5532C15.6652 14.3727 15.1859 14.1228 14.7459 13.8101C14.131 13.3715 13.7453 12.6683 13.7558 11.8946C13.7522 10.1397 15.4144 9.35203 16.9114 9.35166C17.6112 9.34589 18.3627 9.39772 19.0142 9.68192C19.1078 9.7095 19.1273 9.80817 19.1268 9.89658V11.5644C19.1328 11.6679 19.0178 11.7032 18.94 11.6635Z" fill="white"/>
</g>
<defs>
<clipPath id="clip0_22_923">
<rect width="24" height="24" fill="white"/>
</clipPath>
</defs>
</svg>
