<svg width="24" height="24" viewBox="0 0 24 24" fill="none" xmlns="http://www.w3.org/2000/svg">
<mask id="mask0_7_24" style="mask-type:luminance" maskUnits="userSpaceOnUse" x="0" y="0" width="24" height="24">
<path d="M0 0H24V24H0V0Z" fill="white"/>
</mask>
<g mask="url(#mask0_7_24)">
<path d="M24 20.6667C24 22.508 22.508 24 20.6667 24H3.33336C1.49269 24 0 22.508 0 20.6667V3.33336C0 1.49203 1.49269 0 3.33336 0H20.6667C22.508 0 24 1.49203 24 3.33336V20.6667Z" fill="#1E40AB"/>
</g>
<path d="M18.0202 13.0667C17.5869 12.4667 16.9602 12.0533 16.1536 11.8334C16.1536 11.8334 16.8336 11.5867 17.4469 10.6667C17.8136 10.08 18.0002 9.37335 18.0002 8.5467C18.0002 7.11339 17.4802 6.01336 16.4402 5.26004C15.4003 4.50672 14.2269 4.00001 12.2336 4.00001H6.00022V20H12.9536C14.8402 19.9867 16.2603 19.58 17.2269 18.8C18.1869 18.0067 18.6669 16.8334 18.6669 15.2667C18.6669 14.4 18.4536 13.6667 18.0202 13.0667ZM10.0002 6.66672C10.0002 6.66672 12.7802 6.66672 12.8336 6.66672C13.8469 6.66672 14.6669 7.48666 14.6669 8.50001C14.6669 9.51336 13.8469 10.3334 12.8336 10.3334C12.7802 10.3334 10.0002 10.3334 10.0002 10.3334V6.66672ZM13.3336 17.3334H10.0002V13.3334H13.3336C14.4402 13.3334 15.3336 14.2267 15.3336 15.3334C15.3336 16.44 14.4402 17.3334 13.3336 17.3334Z" fill="white"/>
</svg>
