<svg width="23" height="24" viewBox="0 0 23 24" fill="none" xmlns="http://www.w3.org/2000/svg">
<path fill-rule="evenodd" clip-rule="evenodd" d="M11.0199 0.160557C11.4008 -0.0531934 11.8696 -0.0531934 12.2499 0.160557C14.1316 1.21699 19.7941 4.39699 21.6764 5.45343C22.0573 5.66662 22.2917 6.06156 22.2917 6.48912C22.2917 8.60199 22.2917 14.9614 22.2917 17.0743C22.2917 17.5018 22.0573 17.8967 21.6764 18.1106C19.7947 19.167 14.1322 22.347 12.2499 23.4034C11.8691 23.6172 11.4002 23.6172 11.0199 23.4034C9.1382 22.347 3.4757 19.167 1.59345 18.1106C1.2132 17.8967 0.978699 17.5024 0.978699 17.0749C0.978699 14.9619 0.978699 8.60256 0.978699 6.48968C0.978699 6.06212 1.2132 5.66718 1.59401 5.45343C3.47514 4.39699 9.13876 1.21699 11.0199 0.160557Z" fill="#1E40AB"/>
<path fill-rule="evenodd" clip-rule="evenodd" d="M1.14926 17.6191C1.00007 17.4194 0.978699 17.2298 0.978699 16.9745C0.978699 14.8739 0.978699 8.55101 0.978699 6.44988C0.978699 6.02464 1.21264 5.63189 1.59232 5.41982C3.46732 4.36957 9.11076 1.20807 10.9857 0.15726C11.3654 -0.0553652 11.8798 -0.0509277 12.2594 0.16176C14.1344 1.21201 19.7588 4.34657 21.6338 5.39682C21.7853 5.48213 21.9008 5.58476 22.0039 5.72001L1.14926 17.6191Z" fill="#1E40AB"/>
<path fill-rule="evenodd" clip-rule="evenodd" d="M11.6352 3.92746C15.969 3.92746 19.4874 7.4469 19.4874 11.7821C19.4874 16.1172 15.969 19.6366 11.6352 19.6366C7.30136 19.6366 3.78305 16.1172 3.78305 11.7821C3.78305 7.4469 7.30136 3.92746 11.6352 3.92746ZM11.6352 7.85477C13.8018 7.85477 15.5612 9.61421 15.5612 11.7821C15.5612 13.9494 13.8018 15.7093 11.6352 15.7093C9.46855 15.7093 7.70911 13.9494 7.70911 11.7821C7.70911 9.61421 9.46799 7.85477 11.6352 7.85477Z" fill="white"/>
<path fill-rule="evenodd" clip-rule="evenodd" d="M22.0028 5.7254C22.2923 5.9964 22.2866 6.40484 22.2866 6.72634C22.2866 8.85547 22.2687 14.9114 22.2917 17.0405C22.294 17.2627 22.2205 17.4967 22.1105 17.6728L11.407 11.7819L22.0028 5.7254Z" fill="#1E40AB"/>
<path fill-rule="evenodd" clip-rule="evenodd" d="M15.5613 10.0988H16.683V13.4651H15.5613V10.0988ZM19.4874 10.0988H20.6091V13.4651H19.4874V10.0988Z" fill="white"/>
<path fill-rule="evenodd" clip-rule="evenodd" d="M14.4396 11.2209H17.8047V12.343H14.4396V11.2209ZM18.3656 11.2209H21.7308V12.343H18.3656V11.2209Z" fill="white"/>
</svg>
