<svg width="25" height="24" viewBox="0 0 25 24" fill="none" xmlns="http://www.w3.org/2000/svg">
<path fill-rule="evenodd" clip-rule="evenodd" d="M12.3778 0.66807C12.7493 0.459632 13.2066 0.459632 13.5775 0.66807C15.4128 1.69826 20.9358 4.79932 22.7716 5.82951C23.143 6.03738 23.3717 6.42257 23.3717 6.83945C23.3717 8.89988 23.3717 15.1014 23.3717 17.1618C23.3717 17.5787 23.143 17.9638 22.7716 18.1723C20.9363 19.2025 15.4134 22.3035 13.5775 23.3337C13.2061 23.5421 12.7488 23.5421 12.3778 23.3337C10.5425 22.3035 5.01964 19.2025 3.18376 18.1723C2.81289 17.9638 2.5842 17.5792 2.5842 17.1623C2.5842 15.1019 2.5842 8.90044 2.5842 6.84001C2.5842 6.42313 2.81289 6.03794 3.18432 5.82951C5.01907 4.79932 10.5431 1.69826 12.3778 0.66807Z" fill="#1E40AB"/>
<path fill-rule="evenodd" clip-rule="evenodd" d="M12.9779 4.34124C17.2049 4.34124 20.6365 7.77324 20.6365 12.0007C20.6365 16.2282 17.2049 19.6603 12.9779 19.6603C8.75099 19.6603 5.31937 16.2282 5.31937 12.0007C5.31937 7.77324 8.75099 4.34124 12.9779 4.34124ZM12.9779 8.17099C15.0911 8.17099 16.8072 9.88674 16.8072 12.0007C16.8072 14.1142 15.0911 15.8305 12.9779 15.8305C10.8647 15.8305 9.14868 14.1142 9.14868 12.0007C9.14868 9.88674 10.8642 8.17099 12.9779 8.17099Z" fill="white"/>
<path fill-rule="evenodd" clip-rule="evenodd" d="M23.0899 6.09456C23.3722 6.35881 23.3667 6.75706 23.3667 7.07056C23.3667 9.14687 23.3492 15.0524 23.3717 17.1286C23.3738 17.3453 23.3022 17.5734 23.195 17.7452L12.7553 12.0006L23.0899 6.09456Z" fill="#1E40AB"/>
</svg>
