<svg width="21" height="24" viewBox="0 0 21 24" fill="none" xmlns="http://www.w3.org/2000/svg">
<path fill-rule="evenodd" clip-rule="evenodd" d="M9.88369 0.158131C10.2586 -0.0521814 10.7201 -0.0521814 11.0944 0.158131C12.9466 1.19744 18.5203 4.32582 20.373 5.36513C20.7479 5.57488 20.9786 5.96344 20.9786 6.38407C20.9786 8.46263 20.9786 14.7189 20.9786 16.7976C20.9786 17.2181 20.7479 17.6067 20.373 17.817C18.5208 18.8563 12.9471 21.9847 11.0944 23.024C10.7196 23.2343 10.258 23.2343 9.88369 23.024C8.0315 21.9847 2.45781 18.8563 0.605062 17.817C0.23075 17.6067 0 17.2187 0 16.7981C0 14.7195 0 8.46319 0 6.38457C0 5.96401 0.23075 5.57544 0.605625 5.36513C2.45725 4.32582 8.03206 1.19744 9.88369 0.158131Z" fill="#1E40AB"/>
<path fill-rule="evenodd" clip-rule="evenodd" d="M0.167812 17.3334C0.021 17.1369 0 16.9503 0 16.6992C0 14.6327 0 8.41231 0 6.34525C0 5.92688 0.230187 5.54056 0.603937 5.33194C2.4495 4.29869 8.00444 1.1885 9.85 0.15469C10.2237 -0.054498 10.73 -0.0500605 11.1037 0.159127C12.9494 1.19231 18.4855 4.27606 20.3311 5.30925C20.4801 5.39319 20.5939 5.49419 20.6954 5.62719L0.167812 17.3334Z" fill="#1E40AB"/>
<path fill-rule="evenodd" clip-rule="evenodd" d="M10.4893 3.86392C14.7552 3.86392 18.2183 7.32623 18.2183 11.5911C18.2183 15.856 14.7552 19.3183 10.4893 19.3183C6.2235 19.3183 2.76038 15.856 2.76038 11.5911C2.76038 7.32623 6.2235 3.86392 10.4893 3.86392ZM10.4893 7.72748C12.6219 7.72748 14.3538 9.45842 14.3538 11.5911C14.3538 13.7233 12.6219 15.4547 10.4893 15.4547C8.35669 15.4547 6.62481 13.7233 6.62481 11.5911C6.62481 9.45842 8.35613 7.72748 10.4893 7.72748Z" fill="white"/>
<path fill-rule="evenodd" clip-rule="evenodd" d="M20.6943 5.63251C20.9792 5.89913 20.9737 6.30094 20.9737 6.61719C20.9737 8.71182 20.956 14.6695 20.9786 16.7641C20.9809 16.9827 20.9086 17.2129 20.8003 17.3862L10.2646 11.5908L20.6943 5.63251Z" fill="#1E40AB"/>
<path fill-rule="evenodd" clip-rule="evenodd" d="M16.01 9.38309H16.5621V13.7986H16.01V9.38309ZM17.6663 9.38309H18.2183V13.7986H17.6663V9.38309Z" fill="white"/>
<path fill-rule="evenodd" clip-rule="evenodd" d="M14.9059 12.1429H19.3224V12.6948H14.9059V12.1429ZM14.9059 10.4871H19.3224V11.039H14.9059V10.4871Z" fill="white"/>
</svg>
