<svg width="21" height="23" viewBox="0 0 21 23" fill="none" xmlns="http://www.w3.org/2000/svg">
<mask id="mask0_7_32" style="mask-type:luminance" maskUnits="userSpaceOnUse" x="0" y="0" width="21" height="23">
<path d="M0.208008 0H20.584V22.764H0.208008V0Z" fill="white"/>
</mask>
<g mask="url(#mask0_7_32)">
<path d="M20.581 -0.000232697H0.21109L2.0084 20.3676L10.396 22.7638L18.7837 20.3676L20.581 -0.000232697Z" fill="#1E40AB"/>
</g>
<path d="M10.3963 1.79755V20.9073L17.1063 18.9903L18.6041 1.79755H10.3963Z" fill="#1E40AB"/>
<path d="M15.8482 4.79271H10.3963V7.1889H13.332L13.1522 9.58508H10.3963V11.9813H13.0324L12.8526 14.6771L10.3963 15.5157V18.0318L15.1293 16.4742L15.5486 9.58508L15.8482 4.79271Z" fill="white"/>
<path d="M10.3963 4.79271V7.1889H5.06415L4.8844 4.79271H10.3963ZM7.64034 9.58508L7.76015 11.9813H10.3963V9.58508H7.64034ZM7.87996 13.1794H5.48352L5.66327 16.4742L10.3963 18.0318V15.5157L7.9399 14.6771L7.87996 13.1794Z" fill="#EEEEEE"/>
</svg>
