<svg width="18" height="17" viewBox="0 0 18 17" fill="none" xmlns="http://www.w3.org/2000/svg">
<path d="M9 10.625C9.6075 10.625 10.125 10.4125 10.5825 9.99457C11.025 9.56249 11.25 9.07374 11.25 8.49999C11.25 7.92624 11.025 7.43749 10.5825 7.00541C10.125 6.58749 9.6075 6.37499 9 6.37499C8.3925 6.37499 7.875 6.58749 7.4175 7.00541C6.975 7.43749 6.75 7.92624 6.75 8.49999C6.75 9.07374 6.975 9.56249 7.4175 9.99457C7.875 10.4125 8.3925 10.625 9 10.625ZM9 1.41666C11.0625 1.41666 12.825 2.12499 14.2875 3.50624C15.75 4.88749 16.5 6.55207 16.5 8.49999V9.52707C16.5 10.2354 16.2375 10.8375 15.75 11.3333C15.225 11.8079 14.625 12.0417 13.875 12.0417C12.975 12.0417 12.2325 11.6875 11.67 10.9792C10.92 11.6875 10.035 12.0417 9 12.0417C7.9725 12.0417 7.0875 11.6875 6.345 11.0075C5.625 10.3062 5.25 9.47749 5.25 8.49999C5.25 7.52957 5.625 6.69374 6.345 5.99249C7.0875 5.31249 7.9725 4.95832 9 4.95832C10.035 4.95832 10.9125 5.31249 11.655 5.99249C12.375 6.69374 12.75 7.52957 12.75 8.49999V9.52707C12.75 9.81749 12.87 10.0725 13.095 10.2921C13.32 10.5117 13.5825 10.625 13.875 10.625C14.19 10.625 14.4525 10.5117 14.6775 10.2921C14.9025 10.0725 15 9.81749 15 9.52707V8.49999C15 6.94874 14.4225 5.61707 13.2375 4.49791C12.0525 3.37874 10.6425 2.83332 9 2.83332C7.3575 2.83332 5.9475 3.37874 4.7625 4.49791C3.5775 5.61707 3 6.94874 3 8.49999C3 10.0512 3.5775 11.3829 4.7625 12.5021C5.9475 13.6212 7.3575 14.1667 9 14.1667H12.75V15.5833H9C6.9375 15.5833 5.175 14.875 3.7125 13.4937C2.25 12.1125 1.5 10.4479 1.5 8.49999C1.5 6.55207 2.25 4.88749 3.7125 3.50624C5.175 2.12499 6.9375 1.41666 9 1.41666Z" fill="#E6ECFF"/>
</svg>
