<svg width="20" height="24" viewBox="0 0 20 24" fill="none" xmlns="http://www.w3.org/2000/svg">
<path d="M5 24C7.76142 24 10 22.2091 10 20V16H5C2.23857 16 0 17.7909 0 20C0 22.2091 2.23857 24 5 24Z" fill="#1E40AB"/>
<path d="M0 12C0 9.79086 2.23857 8 5 8H10V16H5C2.23857 16 0 14.2091 0 12Z" fill="#1E40AB"/>
<path d="M0 4C0 1.79086 2.23857 -9.53674e-07 5 -9.53674e-07H10V8H5C2.23857 8 0 6.20914 0 4Z" fill="#1E40AB"/>
<path d="M10 -9.53674e-07H15C17.7614 -9.53674e-07 20 1.79086 20 4C20 6.20914 17.7614 8 15 8H10V-9.53674e-07Z" fill="#1E40AB"/>
<path d="M20 12C20 14.2091 17.7614 16 15 16C12.2386 16 10 14.2091 10 12C10 9.79086 12.2386 8 15 8C17.7614 8 20 9.79086 20 12Z" fill="#1E40AB"/>
</svg>
