<svg width="18" height="18" viewBox="0 0 18 18" fill="none" xmlns="http://www.w3.org/2000/svg">
<path d="M8.67263 1.44543C7.72354 1.44543 6.78374 1.63237 5.9069 1.99557C5.03006 2.35877 4.23334 2.89112 3.56223 3.56223C2.20687 4.91759 1.44543 6.75586 1.44543 8.67263C1.44543 11.867 3.51964 14.5772 6.38883 15.5385C6.75019 15.5963 6.86583 15.3722 6.86583 15.1771V13.9557C4.8639 14.3893 4.43749 12.9873 4.43749 12.9873C4.10504 12.1489 3.63527 11.9249 3.63527 11.9249C2.9776 11.4768 3.68586 11.4912 3.68586 11.4912C4.40858 11.5418 4.79162 12.2356 4.79162 12.2356C5.42039 13.3342 6.48279 13.0089 6.89474 12.8355C6.95978 12.3657 7.14769 12.0477 7.35005 11.867C5.74561 11.6864 4.06168 11.0648 4.06168 8.31127C4.06168 7.50905 4.33631 6.86583 4.80608 6.3527C4.73381 6.17202 4.48085 5.42039 4.87835 4.44472C4.87835 4.44472 5.48543 4.24958 6.86583 5.18189C7.43678 5.02289 8.05831 4.9434 8.67263 4.9434C9.28694 4.9434 9.90847 5.02289 10.4794 5.18189C11.8598 4.24958 12.4669 4.44472 12.4669 4.44472C12.8644 5.42039 12.6114 6.17202 12.5392 6.3527C13.0089 6.86583 13.2836 7.50905 13.2836 8.31127C13.2836 11.0721 11.5924 11.6791 9.98075 11.8598C10.2409 12.0839 10.4794 12.5247 10.4794 13.1968V15.1771C10.4794 15.3722 10.5951 15.6035 10.9636 15.5385C13.8328 14.57 15.8998 11.867 15.8998 8.67263C15.8998 7.72354 15.7129 6.78374 15.3497 5.9069C14.9865 5.03006 14.4541 4.23334 13.783 3.56223C13.1119 2.89112 12.3152 2.35877 11.4384 1.99557C10.5615 1.63237 9.62171 1.44543 8.67263 1.44543Z" fill="#E6ECFF"/>
</svg>
