<svg width="23" height="23" viewBox="0 0 23 23" fill="none" xmlns="http://www.w3.org/2000/svg">
<path d="M11.5 1.91666C10.2415 1.91666 8.99533 2.16454 7.83262 2.64615C6.66992 3.12776 5.61346 3.83366 4.72357 4.72356C2.92634 6.52078 1.91667 8.95834 1.91667 11.5C1.91667 15.7358 4.66709 19.3296 8.47167 20.6042C8.95084 20.6808 9.10417 20.3837 9.10417 20.125V18.5054C6.44959 19.0804 5.88417 17.2212 5.88417 17.2212C5.44334 16.1096 4.82042 15.8125 4.82042 15.8125C3.94834 15.2183 4.88751 15.2375 4.88751 15.2375C5.84584 15.3046 6.35376 16.2246 6.35376 16.2246C7.18751 17.6812 8.59626 17.25 9.14251 17.02C9.22876 16.3971 9.47792 15.9754 9.74626 15.7358C7.61876 15.4962 5.38584 14.6721 5.38584 11.0208C5.38584 9.95708 5.75001 9.10416 6.37292 8.42375C6.27709 8.18416 5.94167 7.1875 6.46876 5.89375C6.46876 5.89375 7.27376 5.635 9.10417 6.87125C9.86126 6.66041 10.6854 6.555 11.5 6.555C12.3146 6.555 13.1388 6.66041 13.8958 6.87125C15.7263 5.635 16.5313 5.89375 16.5313 5.89375C17.0583 7.1875 16.7229 8.18416 16.6271 8.42375C17.25 9.10416 17.6142 9.95708 17.6142 11.0208C17.6142 14.6817 15.3717 15.4867 13.2346 15.7262C13.5796 16.0233 13.8958 16.6079 13.8958 17.4992V20.125C13.8958 20.3837 14.0492 20.6904 14.5379 20.6042C18.3425 19.32 21.0833 15.7358 21.0833 11.5C21.0833 10.2415 20.8355 8.99532 20.3539 7.83261C19.8722 6.66991 19.1663 5.61345 18.2764 4.72356C17.3866 3.83366 16.3301 3.12776 15.1674 2.64615C14.0047 2.16454 12.7585 1.91666 11.5 1.91666Z" fill="#1E40AB"/>
</svg>
