<svg width="21" height="23" viewBox="0 0 21 23" fill="none" xmlns="http://www.w3.org/2000/svg">
<mask id="mask0_7_22" style="mask-type:luminance" maskUnits="userSpaceOnUse" x="0" y="0" width="21" height="23">
<path d="M0 0H20.208V22.944H0V0Z" fill="white"/>
</mask>
<g mask="url(#mask0_7_22)">
<path d="M1.83442 20.643L-0.00576782 0.0105934H20.2137L18.372 20.6402L10.091 22.934L1.83442 20.643Z" fill="#1E40AB"/>
</g>
<path d="M10.0954 4.22812H3.75636L4.4393 11.8804H10.104V9.35018H6.75461L6.52311 6.75906H10.104V4.22812H10.0954ZM10.104 15.9136L10.0932 15.9165L7.27411 15.1557L7.09499 13.1377H4.55249L4.90724 17.1107L10.0925 18.5435L10.104 18.5399V15.9136Z" fill="#EBEBEB"/>
<path d="M10.0954 11.8804H13.2126L12.9259 15.1614L10.1026 15.9229V18.5556L15.2921 17.1179L15.9873 9.34874H10.104L10.0954 11.8804ZM16.3756 4.90724L16.4358 4.22812H10.0939V6.75831H16.2079L16.2581 6.18956L16.3756 4.90724Z" fill="white"/>
</svg>
