<svg width="17" height="23" viewBox="0 0 17 23" fill="none" xmlns="http://www.w3.org/2000/svg">
<path d="M5.4009 17.5836C5.4009 17.5836 4.53203 18.0892 6.01928 18.2604C7.8214 18.4658 8.74178 18.4362 10.7273 18.0602C10.7273 18.0602 11.2494 18.3874 11.9788 18.6712C7.52778 20.5792 1.90484 18.5606 5.4009 17.5836Z" fill="#1E40AB"/>
<path d="M4.85695 15.094C4.85695 15.094 3.88239 15.8156 5.37083 15.9697C7.29539 16.1679 8.81551 16.1843 11.4456 15.6774C11.4456 15.6774 11.8096 16.0467 12.3818 16.2482C6.99976 17.8217 1.00552 16.3726 4.85683 15.094" fill="#1E40AB"/>
<path d="M9.44228 10.8707C10.5391 12.1342 9.15391 13.2706 9.15391 13.2706C9.15391 13.2706 11.9393 11.8327 10.6602 10.0319C9.46528 8.35305 8.54953 7.51886 13.5089 4.64255C13.5089 4.64255 5.72459 6.58655 9.44228 10.8707Z" fill="#1E40AB"/>
<path d="M15.3292 19.4253C15.3292 19.4253 15.9724 19.9553 14.6215 20.3655C12.052 21.1438 3.92727 21.3788 1.67046 20.3965C0.859332 20.0436 2.38077 19.5537 2.85933 19.4504C3.35846 19.3424 3.64371 19.3628 3.64371 19.3628C2.74146 18.7268 -2.18817 20.6105 1.13977 21.1503C10.2151 22.6219 17.6834 20.4873 15.3291 19.4253" fill="#1E40AB"/>
<path d="M5.81876 12.5144C5.81876 12.5144 1.68614 13.4961 4.35532 13.8523C5.48226 14.0038 7.7292 13.9695 9.82145 13.7938C11.5318 13.6496 13.2494 13.3428 13.2494 13.3428C13.2494 13.3428 12.6464 13.6015 12.2099 13.8991C8.01295 15.0032 -0.0939248 14.4897 2.23989 13.3605C4.21389 12.4065 5.81876 12.5144 5.81876 12.5144Z" fill="#1E40AB"/>
<path d="M13.2323 16.6586C17.4984 14.4417 15.5254 12.3111 14.1487 12.5982C13.8117 12.6687 13.6609 12.7292 13.6609 12.7292C13.6609 12.7292 13.786 12.533 14.0256 12.4481C16.7492 11.4908 18.8441 15.2726 13.1461 16.7705C13.1461 16.7705 13.2126 16.7112 13.2323 16.6586Z" fill="#1E40AB"/>
<mask id="mask0_7_23" style="mask-type:luminance" maskUnits="userSpaceOnUse" x="5" y="0" width="7" height="13">
<path d="M5.40347 0H11.2755V12.4746H5.40347V0Z" fill="white"/>
</mask>
<g mask="url(#mask0_7_23)">
<path d="M10.66 -0.00204321C10.66 -0.00204321 13.0228 2.36152 8.41896 5.99602C4.72771 8.91127 7.57765 10.5738 8.41765 12.4732C6.26284 10.529 4.68152 8.81714 5.7424 7.22446C7.29977 4.88602 11.6133 3.75233 10.66 -0.00210571" fill="#1E40AB"/>
</g>
<path d="M6.23796 22.6666C10.333 22.9287 16.6208 22.5211 16.7695 20.5834C16.7695 20.5834 16.4831 21.3175 13.3856 21.9008C9.89046 22.5586 5.57958 22.4822 3.02321 22.0602C3.02321 22.0602 3.54652 22.4934 6.23777 22.6666" fill="#1E40AB"/>
</svg>
