<svg width="24" height="24" viewBox="0 0 24 24" fill="none" xmlns="http://www.w3.org/2000/svg">
<g clip-path="url(#clip0_4_768)">
<mask id="mask0_4_768" style="mask-type:luminance" maskUnits="userSpaceOnUse" x="0" y="0" width="24" height="24">
<path d="M0.734863 0.73493H23.2709V23.2709H0.734863V0.73493Z" fill="white"/>
</mask>
<g mask="url(#mask0_4_768)">
<path d="M0.734863 0.73493H23.2709V23.2709H0.734863V0.73493Z" fill="#1E40AB"/>
</g>
<path d="M15.4697 17.6036C15.9029 18.3072 16.3736 18.9814 17.3708 18.9814C18.2085 18.9814 18.6479 18.5652 18.6479 17.9892C18.6479 17.3 18.1934 17.0552 17.272 16.654L16.7668 16.4386C15.3088 15.8202 14.3391 15.0452 14.3391 13.4082C14.3391 11.8995 15.4941 10.7514 17.2988 10.7514C18.584 10.7514 19.5074 11.1965 20.1735 12.3621L18.5997 13.3681C18.2535 12.7496 17.8791 12.5061 17.2988 12.5061C16.7066 12.5061 16.3317 12.8798 16.3317 13.3681C16.3317 13.9716 16.7073 14.2157 17.5743 14.5894L18.0795 14.8048C19.7978 15.5366 20.7669 16.284 20.7669 17.9642C20.7669 19.7746 19.3371 20.7668 17.4178 20.7668C15.5404 20.7668 14.4743 19.8247 13.8809 18.6584L15.4697 17.6036ZM8.21683 17.6549C8.53358 18.2221 9.01502 18.6584 9.70733 18.6584C10.3696 18.6584 10.7509 18.3967 10.7509 17.3795V10.7508H12.8373V17.7001C12.8373 19.8077 11.6148 20.7668 9.82939 20.7668C8.21621 20.7668 7.05183 19.6738 6.57733 18.6584L8.21683 17.6549Z" fill="white"/>
</g>
<defs>
<clipPath id="clip0_4_768">
<rect width="24" height="24" fill="white"/>
</clipPath>
</defs>
</svg>
