<svg width="18" height="17" viewBox="0 0 18 17" fill="none" xmlns="http://www.w3.org/2000/svg">
<path d="M14.25 2.125C14.6478 2.125 15.0294 2.27426 15.3107 2.53993C15.592 2.80561 15.75 3.16594 15.75 3.54167V13.4583C15.75 13.8341 15.592 14.1944 15.3107 14.4601C15.0294 14.7257 14.6478 14.875 14.25 14.875H3.75C3.35218 14.875 2.97064 14.7257 2.68934 14.4601C2.40804 14.1944 2.25 13.8341 2.25 13.4583V3.54167C2.25 3.16594 2.40804 2.80561 2.68934 2.53993C2.97064 2.27426 3.35218 2.125 3.75 2.125H14.25ZM13.875 13.1042V9.35C13.875 8.73757 13.6174 8.15023 13.1589 7.71717C12.7003 7.28412 12.0785 7.04083 11.43 7.04083C10.7925 7.04083 10.05 7.40917 9.69 7.96167V7.17542H7.5975V13.1042H9.69V9.61208C9.69 9.06667 10.155 8.62042 10.7325 8.62042C11.011 8.62042 11.278 8.7249 11.475 8.91087C11.6719 9.09684 11.7825 9.34908 11.7825 9.61208V13.1042H13.875ZM5.16 6.06333C5.49417 6.06333 5.81466 5.93796 6.05095 5.71479C6.28725 5.49162 6.42 5.18894 6.42 4.87333C6.42 4.21458 5.8575 3.67625 5.16 3.67625C4.82384 3.67625 4.50144 3.80237 4.26374 4.02687C4.02604 4.25136 3.8925 4.55585 3.8925 4.87333C3.8925 5.53208 4.4625 6.06333 5.16 6.06333ZM6.2025 13.1042V7.17542H4.125V13.1042H6.2025Z" fill="#E6ECFF"/>
</svg>
