<svg width="24" height="24" viewBox="0 0 24 24" fill="none" xmlns="http://www.w3.org/2000/svg">
<path d="M11.0611 1.11199C11.6186 0.796304 12.3292 0.794929 12.8727 1.11199L21.1949 5.80368C21.7153 6.09637 22.0637 6.6768 22.0588 7.2768V16.6839C22.0623 17.3089 21.6798 17.9019 21.1307 18.189L12.8532 22.8591C12.818 22.8786 12.7822 22.8968 12.7458 22.9139C12.7094 22.9309 12.6725 22.9468 12.635 22.9614C12.5976 22.976 12.5596 22.9894 12.5213 23.0014C12.4829 23.0135 12.4442 23.0243 12.4051 23.0338C12.3661 23.0433 12.3267 23.0515 12.2871 23.0584C12.2475 23.0653 12.2077 23.0709 12.1677 23.0751C12.1277 23.0793 12.0876 23.0822 12.0474 23.0837C12.0073 23.0853 11.9671 23.0856 11.9269 23.0844C11.8867 23.0833 11.8466 23.0809 11.8066 23.0771C11.7666 23.0733 11.7267 23.0682 11.687 23.0617C11.6473 23.0553 11.6079 23.0476 11.5687 23.0385C11.5295 23.0294 11.4907 23.0191 11.4522 23.0074C11.4137 22.9958 11.3756 22.9829 11.338 22.9687C11.3004 22.9545 11.2633 22.9391 11.2267 22.9224C11.1901 22.9058 11.1541 22.8879 11.1187 22.8689C11.0832 22.8498 11.0485 22.8296 11.0144 22.8082L8.5305 21.3728C8.36119 21.2717 8.171 21.1916 8.05112 21.0279C8.15706 20.8857 8.34518 20.8676 8.49844 20.8049C8.84406 20.6948 9.16037 20.5262 9.47812 20.3477C9.55825 20.2921 9.6565 20.3129 9.73312 20.3631L11.8512 21.5881C12.0025 21.6752 12.1557 21.5602 12.2854 21.4871L20.4131 16.8999C20.5134 16.8511 20.5691 16.7452 20.5608 16.6351V7.31855C20.5719 7.19318 20.5002 7.07887 20.3866 7.02799L12.13 2.37812C12.1181 2.36993 12.1057 2.36268 12.0929 2.35637C12.0799 2.35005 12.0666 2.34474 12.0529 2.34043C12.0392 2.33618 12.0252 2.33293 12.011 2.33074C11.9967 2.32855 11.9825 2.32743 11.9681 2.32737C11.9537 2.32737 11.9394 2.32843 11.9252 2.33055C11.9109 2.33268 11.897 2.33587 11.8832 2.34012C11.8695 2.3443 11.8561 2.34955 11.8432 2.35587C11.8302 2.36212 11.8179 2.3693 11.806 2.37743L3.56118 7.03705C3.44975 7.08793 3.37306 7.2008 3.387 7.32624V16.6427C3.37725 16.7529 3.43581 16.8567 3.53681 16.9041L5.74 18.1479C6.15387 18.3709 6.66181 18.4963 7.1175 18.3326C7.14225 18.3232 7.16656 18.313 7.19056 18.3018C7.2145 18.2906 7.238 18.2786 7.26106 18.2656C7.28412 18.2526 7.30668 18.2388 7.32868 18.2242C7.35068 18.2095 7.37206 18.194 7.39293 18.1777C7.41375 18.1614 7.43393 18.1444 7.45343 18.1265C7.473 18.1087 7.49181 18.0901 7.50993 18.0709C7.52806 18.0516 7.54543 18.0317 7.56206 18.0111C7.57868 17.9906 7.5945 17.9694 7.6095 17.9476C7.6245 17.9258 7.63862 17.9035 7.65193 17.8807C7.66525 17.8578 7.67768 17.8345 7.68925 17.8107C7.70081 17.7869 7.71143 17.7627 7.72112 17.7381C7.73081 17.7135 7.73956 17.6886 7.74737 17.6633C7.75518 17.638 7.76206 17.6125 7.76793 17.5867C7.77381 17.5609 7.77869 17.5349 7.78256 17.5088C7.7865 17.4826 7.78937 17.4564 7.79131 17.43C7.79325 17.4036 7.79412 17.3772 7.79406 17.3507L7.79612 8.08999C7.78637 7.95268 7.91594 7.83912 8.04906 7.85305H9.10812C9.2475 7.84955 9.35687 7.9973 9.33806 8.13524L9.33594 17.4546C9.33668 18.2824 8.99662 19.1827 8.23087 19.5889C7.2875 20.0767 6.12112 19.9742 5.18881 19.5053L2.81987 18.1953C2.26243 17.9166 1.88831 17.3145 1.89175 16.6902V7.28305C1.89206 7.24505 1.89362 7.20705 1.89643 7.16918C1.89925 7.1313 1.90331 7.09349 1.90862 7.05587C1.91393 7.01824 1.9205 6.9808 1.92831 6.94362C1.93612 6.90643 1.94518 6.86955 1.95543 6.83293C1.96575 6.79637 1.97718 6.76012 1.98987 6.7243C2.00256 6.68849 2.01637 6.65312 2.03143 6.61818C2.04643 6.5833 2.06262 6.54893 2.07993 6.51505C2.09725 6.48124 2.11568 6.44805 2.13518 6.41543C2.15468 6.3828 2.17531 6.35087 2.19693 6.31962C2.21862 6.28843 2.24125 6.25793 2.26493 6.22818C2.28862 6.19843 2.31325 6.16955 2.33887 6.14143C2.36443 6.11337 2.39093 6.08612 2.41837 6.0598C2.44575 6.03349 2.474 6.00812 2.50312 5.98362C2.53218 5.95918 2.56206 5.93574 2.59275 5.91324C2.62337 5.8908 2.65475 5.86937 2.68687 5.84899C2.71893 5.82862 2.75162 5.80937 2.785 5.79118L11.0611 1.11199ZM13.4608 7.63287C14.6641 7.56318 15.9524 7.58687 17.0352 8.17987C17.8734 8.63418 18.3381 9.58743 18.3534 10.5198C18.3297 10.6452 18.1987 10.7149 18.0789 10.7059C17.7306 10.7051 17.3807 10.7107 17.031 10.7037C16.8826 10.7093 16.7969 10.5727 16.7781 10.4417C16.6777 9.9958 16.4346 9.55468 16.0151 9.33937C15.3713 9.01674 14.6244 9.03274 13.9221 9.03974C13.4092 9.06762 12.8581 9.11149 12.424 9.41255C12.0896 9.64112 11.9892 10.1094 12.1084 10.4731C12.2199 10.74 12.5285 10.8257 12.7801 10.9051C14.2307 11.2842 15.7671 11.2536 17.1906 11.7462C17.7793 11.9497 18.3556 12.3455 18.5576 12.9622C18.821 13.7886 18.706 14.7767 18.1186 15.4401C17.6421 15.9864 16.9481 16.2762 16.2548 16.4449C15.333 16.6504 14.3771 16.6553 13.4413 16.5633C12.5612 16.463 11.6457 16.2316 10.9664 15.6324C10.3853 15.1279 10.1024 14.3419 10.1302 13.5837C10.1372 13.4555 10.2647 13.3663 10.3881 13.3767H11.4332C11.574 13.367 11.6771 13.4882 11.6841 13.6206C11.7489 14.0387 11.9084 14.4917 12.2791 14.7356C12.9939 15.1969 13.8907 15.1648 14.7087 15.1781C15.3866 15.1481 16.1475 15.139 16.7014 14.6902C16.9941 14.4346 17.0797 14.0074 17.0011 13.6394C16.9153 13.3287 16.583 13.1844 16.3043 13.082C14.8724 12.6291 13.3187 12.7935 11.9007 12.2807C11.3252 12.0772 10.7685 11.6926 10.5476 11.1009C10.239 10.2647 10.3804 9.22855 11.0305 8.58749C11.6576 7.94993 12.5773 7.70393 13.4482 7.61612L13.4608 7.63287Z" fill="#1E40AB"/>
</svg>
