<svg width="24" height="24" viewBox="0 0 24 24" fill="none" xmlns="http://www.w3.org/2000/svg">
<g clip-path="url(#clip0_7_29)">
<mask id="mask0_7_29" style="mask-type:luminance" maskUnits="userSpaceOnUse" x="0" y="0" width="17" height="18">
<path d="M0.975967 0.981861H16.656V17.8084H0.975967V0.981861Z" fill="white"/>
</mask>
<g mask="url(#mask0_7_29)">
<path d="M12.2887 0.981904C11.3869 0.984779 10.7617 1.06422 10.006 1.19465C7.77448 1.58309 7.36792 2.3989 7.36792 3.90228V6.19997H12.5874V7.35959H4.64686C3.11811 7.35959 1.78017 8.07965 1.35623 9.80572C0.877233 11.7868 0.855733 13.0276 1.35623 15.0963C1.73611 16.6391 2.57298 17.7958 4.10223 17.7958H6.20861V14.8365C6.20861 13.1169 7.76636 11.4181 9.55142 11.4181H13.7479C15.211 11.4181 16.6475 10.3385 16.6475 8.88034V3.90228C16.6475 2.48815 15.6274 1.43065 14.2014 1.19353C14.2367 1.19003 13.183 0.978404 12.2887 0.981904ZM9.3983 3.30103C9.87442 3.30103 10.2682 3.69353 10.2682 4.1719C10.2682 4.65484 9.87442 5.0404 9.3983 5.0404C8.91286 5.0404 8.52836 4.6554 8.52836 4.1719C8.52836 3.69528 8.91286 3.30103 9.3983 3.30103Z" fill="#1E40AB"/>
</g>
<mask id="mask1_7_29" style="mask-type:luminance" maskUnits="userSpaceOnUse" x="7" y="6" width="17" height="18">
<path d="M7.35999 6.19213H23.04V23.0136H7.35999V6.19213Z" fill="white"/>
</mask>
<g mask="url(#mask1_7_29)">
<path d="M11.7267 23.0138C12.6285 23.0109 13.2537 22.9315 14.0094 22.801C16.241 22.4126 16.6475 21.5968 16.6475 20.0934V17.7957H11.4281V16.6361H19.3692C20.898 16.6361 22.2358 15.916 22.6598 14.19C23.1388 12.2088 23.1603 10.9681 22.6598 8.8994C22.2793 7.35659 21.4425 6.1999 19.9132 6.1999H17.8068V9.15915C17.8068 10.8788 16.2491 12.5776 14.4641 12.5776H10.2676C8.80439 12.5776 7.36789 13.6571 7.36789 15.1153V20.0934C7.36789 21.5075 8.38801 22.565 9.81408 22.8022C9.7787 22.8056 10.8325 23.0173 11.7267 23.0138ZM14.6178 20.6946C14.1416 20.6946 13.7478 20.3021 13.7478 19.8238C13.7478 19.3408 14.1416 18.9553 14.6178 18.9553C15.1031 18.9553 15.4876 19.3403 15.4876 19.8238C15.4876 20.3004 15.1026 20.6946 14.6178 20.6946Z" fill="#1E40AB"/>
</g>
</g>
<defs>
<clipPath id="clip0_7_29">
<rect width="24" height="24" fill="white"/>
</clipPath>
</defs>
</svg>
