<svg width="23" height="22" viewBox="0 0 23 22" fill="none" xmlns="http://www.w3.org/2000/svg">
<mask id="path-1-inside-1_7_17" fill="white">
<path d="M13.2663 10.9828C13.2663 11.0157 13.2655 11.0486 13.2639 11.0814C13.2623 11.1143 13.2599 11.1471 13.2567 11.1799C13.2535 11.2126 13.2494 11.2453 13.2446 11.2778C13.2398 11.3104 13.2342 11.3428 13.2277 11.375C13.2213 11.4074 13.2141 11.4394 13.2061 11.4714C13.1981 11.5033 13.1893 11.535 13.1798 11.5665C13.1702 11.598 13.1599 11.6292 13.1488 11.6602C13.1377 11.6912 13.1259 11.7219 13.1133 11.7522C13.1007 11.7827 13.0874 11.8127 13.0733 11.8425C13.0593 11.8722 13.0445 11.9016 13.029 11.9306C13.0135 11.9597 12.9973 11.9883 12.9803 12.0165C12.9634 12.0447 12.9458 12.0725 12.9275 12.0999C12.9093 12.1272 12.8903 12.1541 12.8707 12.1805C12.8512 12.207 12.8309 12.2329 12.81 12.2584C12.7892 12.2838 12.7677 12.3087 12.7456 12.3331C12.7235 12.3575 12.7008 12.3813 12.6775 12.4045C12.6543 12.4279 12.6305 12.4505 12.6061 12.4726C12.5817 12.4947 12.5568 12.5162 12.5314 12.5371C12.506 12.558 12.48 12.5782 12.4536 12.5978C12.4272 12.6174 12.4003 12.6364 12.3729 12.6546C12.3456 12.6729 12.3178 12.6905 12.2895 12.7074C12.2613 12.7244 12.2327 12.7405 12.2037 12.756C12.1747 12.7716 12.1453 12.7864 12.1156 12.8004C12.0858 12.8145 12.0558 12.8279 12.0254 12.8404C11.995 12.853 11.9643 12.8649 11.9333 12.876C11.9023 12.887 11.8711 12.8974 11.8397 12.9069C11.8082 12.9165 11.7765 12.9252 11.7445 12.9332C11.7126 12.9412 11.6805 12.9484 11.6483 12.9549C11.616 12.9613 11.5836 12.9669 11.551 12.9717C11.5185 12.9765 11.4858 12.9806 11.4531 12.9838C11.4204 12.987 11.3876 12.9895 11.3547 12.991C11.3218 12.9927 11.289 12.9935 11.2561 12.9935C11.2232 12.9935 11.1903 12.9927 11.1575 12.991C11.1246 12.9895 11.0918 12.987 11.059 12.9838C11.0263 12.9806 10.9937 12.9765 10.9611 12.9717C10.9286 12.9669 10.8962 12.9613 10.8639 12.9549C10.8317 12.9484 10.7995 12.9412 10.7677 12.9332C10.7357 12.9252 10.704 12.9165 10.6725 12.9069C10.641 12.8974 10.6098 12.887 10.5788 12.876C10.5478 12.8649 10.5172 12.853 10.4868 12.8404C10.4564 12.8279 10.4263 12.8145 10.3966 12.8004C10.3668 12.7864 10.3375 12.7716 10.3085 12.756C10.2795 12.7405 10.2508 12.7244 10.2226 12.7074C10.1944 12.6905 10.1666 12.6729 10.1392 12.6546C10.1119 12.6364 10.085 12.6174 10.0586 12.5978C10.0322 12.5782 10.0062 12.558 9.98079 12.5371C9.95535 12.5162 9.93047 12.4947 9.9061 12.4726C9.88172 12.4505 9.85791 12.4279 9.8346 12.4045C9.81135 12.3813 9.78866 12.3575 9.7666 12.3331C9.74447 12.3087 9.72304 12.2838 9.70216 12.2584C9.68129 12.2329 9.66104 12.207 9.64141 12.1805C9.62185 12.1541 9.60291 12.1272 9.5846 12.0999C9.56635 12.0725 9.54872 12.0447 9.53185 12.0165C9.51491 11.9883 9.49872 11.9597 9.48322 11.9306C9.46766 11.9016 9.45291 11.8722 9.43885 11.8425C9.42479 11.8127 9.41141 11.7827 9.39885 11.7522C9.38629 11.7219 9.37441 11.6912 9.36335 11.6602C9.35222 11.6292 9.34191 11.598 9.33241 11.5665C9.32285 11.535 9.31404 11.5033 9.3061 11.4714C9.2981 11.4394 9.29085 11.4074 9.28447 11.375C9.27804 11.3428 9.27241 11.3104 9.2676 11.2778C9.26279 11.2453 9.25872 11.2126 9.25554 11.1799C9.25229 11.1471 9.24985 11.1143 9.24822 11.0814C9.24666 11.0486 9.24585 11.0157 9.24585 10.9828C9.24585 10.9499 9.24666 10.917 9.24822 10.8841C9.24985 10.8512 9.25229 10.8185 9.25554 10.7857C9.25872 10.753 9.26279 10.7203 9.2676 10.6877C9.27241 10.6552 9.27804 10.6228 9.28447 10.5905C9.29085 10.5582 9.2981 10.5262 9.3061 10.4942C9.31404 10.4623 9.32285 10.4306 9.33241 10.3991C9.34191 10.3676 9.35222 10.3364 9.36335 10.3054C9.37441 10.2744 9.38629 10.2437 9.39885 10.2133C9.41141 10.1829 9.42479 10.1529 9.43885 10.1231C9.45291 10.0934 9.46766 10.064 9.48322 10.0349C9.49872 10.0059 9.51491 9.97729 9.53185 9.94904C9.54872 9.92086 9.56635 9.89304 9.5846 9.86567C9.60291 9.83836 9.62185 9.81142 9.64141 9.78498C9.66104 9.75861 9.68129 9.73267 9.70216 9.70723C9.72304 9.68179 9.74447 9.65686 9.7666 9.63248C9.78866 9.60811 9.81135 9.58429 9.8346 9.56098C9.85791 9.53773 9.88172 9.51504 9.9061 9.49298C9.93047 9.47086 9.95535 9.44936 9.98079 9.42848C10.0062 9.40761 10.0322 9.38736 10.0586 9.36779C10.085 9.34817 10.1119 9.32923 10.1392 9.31092C10.1666 9.29267 10.1944 9.27504 10.2226 9.25817C10.2508 9.24123 10.2795 9.22504 10.3085 9.20948C10.3375 9.19398 10.3668 9.17917 10.3966 9.16511C10.4263 9.15104 10.4564 9.13773 10.4868 9.12511C10.5172 9.11254 10.5478 9.10073 10.5788 9.08961C10.6098 9.07854 10.641 9.06823 10.6725 9.05867C10.704 9.04911 10.7357 9.04036 10.7677 9.03236C10.7995 9.02436 10.8317 9.01711 10.8639 9.01073C10.8962 9.00429 10.9286 8.99867 10.9611 8.99386C10.9937 8.98904 11.0263 8.98498 11.059 8.98173C11.0918 8.97854 11.1246 8.97611 11.1575 8.97448C11.1903 8.97286 11.2232 8.97211 11.2561 8.97211C11.289 8.97211 11.3218 8.97286 11.3547 8.97448C11.3876 8.97611 11.4204 8.97854 11.4531 8.98173C11.4858 8.98498 11.5185 8.98904 11.551 8.99386C11.5836 8.99867 11.616 9.00429 11.6483 9.01073C11.6805 9.01711 11.7126 9.02436 11.7445 9.03236C11.7765 9.04036 11.8082 9.04911 11.8397 9.05867C11.8711 9.06823 11.9023 9.07854 11.9333 9.08961C11.9643 9.10073 11.995 9.11254 12.0254 9.12511C12.0558 9.13773 12.0858 9.15104 12.1156 9.16511C12.1453 9.17917 12.1747 9.19398 12.2037 9.20948C12.2327 9.22498 12.2613 9.24123 12.2895 9.25817C12.3178 9.27504 12.3456 9.29267 12.3729 9.31092C12.4003 9.32923 12.4272 9.34817 12.4536 9.36779C12.48 9.38736 12.506 9.40761 12.5314 9.42848C12.5568 9.44936 12.5817 9.47086 12.6061 9.49292C12.6305 9.51504 12.6543 9.53773 12.6775 9.56098C12.7008 9.58429 12.7235 9.60811 12.7456 9.63248C12.7677 9.65686 12.7892 9.68179 12.81 9.70723C12.8309 9.73267 12.8512 9.75861 12.8707 9.78498C12.8903 9.81142 12.9093 9.83836 12.9275 9.86567C12.9458 9.89304 12.9634 9.92086 12.9803 9.94911C12.9973 9.97729 13.0135 10.0059 13.029 10.0349C13.0445 10.064 13.0593 10.0934 13.0733 10.1231C13.0874 10.1529 13.1007 10.1829 13.1133 10.2133C13.1259 10.2437 13.1377 10.2744 13.1488 10.3054C13.1599 10.3364 13.1702 10.3676 13.1798 10.3991C13.1893 10.4306 13.1981 10.4623 13.2061 10.4942C13.2141 10.5262 13.2213 10.5582 13.2277 10.5905C13.2342 10.6228 13.2398 10.6552 13.2446 10.6877C13.2494 10.7203 13.2535 10.753 13.2567 10.7857C13.2599 10.8185 13.2623 10.8512 13.2639 10.8841C13.2655 10.917 13.2663 10.9499 13.2663 10.9828Z"/>
</mask>
<path d="M13.2663 10.9828C13.2663 11.0157 13.2655 11.0486 13.2639 11.0814C13.2623 11.1143 13.2599 11.1471 13.2567 11.1799C13.2535 11.2126 13.2494 11.2453 13.2446 11.2778C13.2398 11.3104 13.2342 11.3428 13.2277 11.375C13.2213 11.4074 13.2141 11.4394 13.2061 11.4714C13.1981 11.5033 13.1893 11.535 13.1798 11.5665C13.1702 11.598 13.1599 11.6292 13.1488 11.6602C13.1377 11.6912 13.1259 11.7219 13.1133 11.7522C13.1007 11.7827 13.0874 11.8127 13.0733 11.8425C13.0593 11.8722 13.0445 11.9016 13.029 11.9306C13.0135 11.9597 12.9973 11.9883 12.9803 12.0165C12.9634 12.0447 12.9458 12.0725 12.9275 12.0999C12.9093 12.1272 12.8903 12.1541 12.8707 12.1805C12.8512 12.207 12.8309 12.2329 12.81 12.2584C12.7892 12.2838 12.7677 12.3087 12.7456 12.3331C12.7235 12.3575 12.7008 12.3813 12.6775 12.4045C12.6543 12.4279 12.6305 12.4505 12.6061 12.4726C12.5817 12.4947 12.5568 12.5162 12.5314 12.5371C12.506 12.558 12.48 12.5782 12.4536 12.5978C12.4272 12.6174 12.4003 12.6364 12.3729 12.6546C12.3456 12.6729 12.3178 12.6905 12.2895 12.7074C12.2613 12.7244 12.2327 12.7405 12.2037 12.756C12.1747 12.7716 12.1453 12.7864 12.1156 12.8004C12.0858 12.8145 12.0558 12.8279 12.0254 12.8404C11.995 12.853 11.9643 12.8649 11.9333 12.876C11.9023 12.887 11.8711 12.8974 11.8397 12.9069C11.8082 12.9165 11.7765 12.9252 11.7445 12.9332C11.7126 12.9412 11.6805 12.9484 11.6483 12.9549C11.616 12.9613 11.5836 12.9669 11.551 12.9717C11.5185 12.9765 11.4858 12.9806 11.4531 12.9838C11.4204 12.987 11.3876 12.9895 11.3547 12.991C11.3218 12.9927 11.289 12.9935 11.2561 12.9935C11.2232 12.9935 11.1903 12.9927 11.1575 12.991C11.1246 12.9895 11.0918 12.987 11.059 12.9838C11.0263 12.9806 10.9937 12.9765 10.9611 12.9717C10.9286 12.9669 10.8962 12.9613 10.8639 12.9549C10.8317 12.9484 10.7995 12.9412 10.7677 12.9332C10.7357 12.9252 10.704 12.9165 10.6725 12.9069C10.641 12.8974 10.6098 12.887 10.5788 12.876C10.5478 12.8649 10.5172 12.853 10.4868 12.8404C10.4564 12.8279 10.4263 12.8145 10.3966 12.8004C10.3668 12.7864 10.3375 12.7716 10.3085 12.756C10.2795 12.7405 10.2508 12.7244 10.2226 12.7074C10.1944 12.6905 10.1666 12.6729 10.1392 12.6546C10.1119 12.6364 10.085 12.6174 10.0586 12.5978C10.0322 12.5782 10.0062 12.558 9.98079 12.5371C9.95535 12.5162 9.93047 12.4947 9.9061 12.4726C9.88172 12.4505 9.85791 12.4279 9.8346 12.4045C9.81135 12.3813 9.78866 12.3575 9.7666 12.3331C9.74447 12.3087 9.72304 12.2838 9.70216 12.2584C9.68129 12.2329 9.66104 12.207 9.64141 12.1805C9.62185 12.1541 9.60291 12.1272 9.5846 12.0999C9.56635 12.0725 9.54872 12.0447 9.53185 12.0165C9.51491 11.9883 9.49872 11.9597 9.48322 11.9306C9.46766 11.9016 9.45291 11.8722 9.43885 11.8425C9.42479 11.8127 9.41141 11.7827 9.39885 11.7522C9.38629 11.7219 9.37441 11.6912 9.36335 11.6602C9.35222 11.6292 9.34191 11.598 9.33241 11.5665C9.32285 11.535 9.31404 11.5033 9.3061 11.4714C9.2981 11.4394 9.29085 11.4074 9.28447 11.375C9.27804 11.3428 9.27241 11.3104 9.2676 11.2778C9.26279 11.2453 9.25872 11.2126 9.25554 11.1799C9.25229 11.1471 9.24985 11.1143 9.24822 11.0814C9.24666 11.0486 9.24585 11.0157 9.24585 10.9828C9.24585 10.9499 9.24666 10.917 9.24822 10.8841C9.24985 10.8512 9.25229 10.8185 9.25554 10.7857C9.25872 10.753 9.26279 10.7203 9.2676 10.6877C9.27241 10.6552 9.27804 10.6228 9.28447 10.5905C9.29085 10.5582 9.2981 10.5262 9.3061 10.4942C9.31404 10.4623 9.32285 10.4306 9.33241 10.3991C9.34191 10.3676 9.35222 10.3364 9.36335 10.3054C9.37441 10.2744 9.38629 10.2437 9.39885 10.2133C9.41141 10.1829 9.42479 10.1529 9.43885 10.1231C9.45291 10.0934 9.46766 10.064 9.48322 10.0349C9.49872 10.0059 9.51491 9.97729 9.53185 9.94904C9.54872 9.92086 9.56635 9.89304 9.5846 9.86567C9.60291 9.83836 9.62185 9.81142 9.64141 9.78498C9.66104 9.75861 9.68129 9.73267 9.70216 9.70723C9.72304 9.68179 9.74447 9.65686 9.7666 9.63248C9.78866 9.60811 9.81135 9.58429 9.8346 9.56098C9.85791 9.53773 9.88172 9.51504 9.9061 9.49298C9.93047 9.47086 9.95535 9.44936 9.98079 9.42848C10.0062 9.40761 10.0322 9.38736 10.0586 9.36779C10.085 9.34817 10.1119 9.32923 10.1392 9.31092C10.1666 9.29267 10.1944 9.27504 10.2226 9.25817C10.2508 9.24123 10.2795 9.22504 10.3085 9.20948C10.3375 9.19398 10.3668 9.17917 10.3966 9.16511C10.4263 9.15104 10.4564 9.13773 10.4868 9.12511C10.5172 9.11254 10.5478 9.10073 10.5788 9.08961C10.6098 9.07854 10.641 9.06823 10.6725 9.05867C10.704 9.04911 10.7357 9.04036 10.7677 9.03236C10.7995 9.02436 10.8317 9.01711 10.8639 9.01073C10.8962 9.00429 10.9286 8.99867 10.9611 8.99386C10.9937 8.98904 11.0263 8.98498 11.059 8.98173C11.0918 8.97854 11.1246 8.97611 11.1575 8.97448C11.1903 8.97286 11.2232 8.97211 11.2561 8.97211C11.289 8.97211 11.3218 8.97286 11.3547 8.97448C11.3876 8.97611 11.4204 8.97854 11.4531 8.98173C11.4858 8.98498 11.5185 8.98904 11.551 8.99386C11.5836 8.99867 11.616 9.00429 11.6483 9.01073C11.6805 9.01711 11.7126 9.02436 11.7445 9.03236C11.7765 9.04036 11.8082 9.04911 11.8397 9.05867C11.8711 9.06823 11.9023 9.07854 11.9333 9.08961C11.9643 9.10073 11.995 9.11254 12.0254 9.12511C12.0558 9.13773 12.0858 9.15104 12.1156 9.16511C12.1453 9.17917 12.1747 9.19398 12.2037 9.20948C12.2327 9.22498 12.2613 9.24123 12.2895 9.25817C12.3178 9.27504 12.3456 9.29267 12.3729 9.31092C12.4003 9.32923 12.4272 9.34817 12.4536 9.36779C12.48 9.38736 12.506 9.40761 12.5314 9.42848C12.5568 9.44936 12.5817 9.47086 12.6061 9.49292C12.6305 9.51504 12.6543 9.53773 12.6775 9.56098C12.7008 9.58429 12.7235 9.60811 12.7456 9.63248C12.7677 9.65686 12.7892 9.68179 12.81 9.70723C12.8309 9.73267 12.8512 9.75861 12.8707 9.78498C12.8903 9.81142 12.9093 9.83836 12.9275 9.86567C12.9458 9.89304 12.9634 9.92086 12.9803 9.94911C12.9973 9.97729 13.0135 10.0059 13.029 10.0349C13.0445 10.064 13.0593 10.0934 13.0733 10.1231C13.0874 10.1529 13.1007 10.1829 13.1133 10.2133C13.1259 10.2437 13.1377 10.2744 13.1488 10.3054C13.1599 10.3364 13.1702 10.3676 13.1798 10.3991C13.1893 10.4306 13.1981 10.4623 13.2061 10.4942C13.2141 10.5262 13.2213 10.5582 13.2277 10.5905C13.2342 10.6228 13.2398 10.6552 13.2446 10.6877C13.2494 10.7203 13.2535 10.753 13.2567 10.7857C13.2599 10.8185 13.2623 10.8512 13.2639 10.8841C13.2655 10.917 13.2663 10.9499 13.2663 10.9828Z" stroke="#1E40AB" stroke-width="2" mask="url(#path-1-inside-1_7_17)"/>
<mask id="mask0_7_17" style="mask-type:luminance" maskUnits="userSpaceOnUse" x="0" y="1" width="23" height="20">
<path d="M22.0117 1.94818V20.0683H0.5V1.94818H22.0117Z" fill="white" stroke="white"/>
</mask>
<g mask="url(#mask0_7_17)">
<path d="M11.2562 6.89441C13.9552 6.89441 16.4626 7.28178 18.3532 7.93278C20.631 8.71716 22.0315 9.90604 22.0315 10.9826C22.0315 12.1044 20.5473 13.3675 18.1012 14.1781C16.2519 14.791 13.8183 15.1108 11.2562 15.1108C8.62934 15.1108 6.1419 14.8106 4.27172 14.1714C1.90572 13.3625 0.480591 12.0831 0.480591 10.9826C0.480591 9.91479 1.81778 8.73503 4.06359 7.95185C5.96115 7.29016 8.53034 6.89441 11.256 6.89441H11.2562Z" stroke="#1E40AB"/>
</g>
<mask id="mask1_7_17" style="mask-type:luminance" maskUnits="userSpaceOnUse" x="0" y="0" width="23" height="22">
<path d="M22.269 0.5V20.584H0.757294V0.5H22.269Z" fill="white" stroke="white"/>
</mask>
<g mask="url(#mask1_7_17)">
<path d="M7.95554 8.49067C9.30391 6.1521 10.892 4.17323 12.4002 2.86023C14.2175 1.27848 15.9465 0.658979 16.879 1.19673C17.8507 1.75717 18.203 3.67429 17.6831 6.19879C17.2904 8.10729 16.3514 10.3755 15.0714 12.5956C13.7591 14.8717 12.2564 16.877 10.7686 18.1776C8.88604 19.8236 7.06598 20.4193 6.1131 19.8695C5.18823 19.3364 4.8346 17.5881 5.27823 15.251C5.6531 13.2763 6.59385 10.8526 7.95498 8.4911L7.95554 8.49067Z" stroke="#1E40AB"/>
<path d="M7.95878 12.6015C6.60678 10.2655 5.68597 7.90083 5.30166 5.93808C4.8391 3.57333 5.16616 1.76533 6.09766 1.22583C7.06835 0.663763 8.90485 1.31576 10.8317 3.02701C12.2885 4.32083 13.7845 6.26701 15.068 8.48476C16.3841 10.7586 17.3705 13.0623 17.7542 15.001C18.2398 17.4545 17.8468 19.3289 16.8946 19.8804C15.9707 20.4154 14.2799 19.849 12.4771 18.2973C10.9539 16.9862 9.32435 14.9609 7.95878 12.6015Z" stroke="#1E40AB"/>
</g>
</svg>
