<svg xmlns="http://www.w3.org/2000/svg" xmlns:xlink="http://www.w3.org/1999/xlink" viewBox="0 0 28.2 24.63"><defs><style>.cls-1{opacity:0.2;}.cls-2{fill:none;}.cls-3{fill:#fff;}.cls-4{opacity:0.12;}.cls-5{fill:#1e40ab;}.cls-6{opacity:0.48;}.cls-7{opacity:0.24;}.cls-8,.cls-9{opacity:0.5;}.cls-9{isolation:isolate;fill:url(#Degradado_sin_nombre);}</style><linearGradient id="Degradado_sin_nombre" x1="4.71" y1="22.18" x2="12.99" y2="7.85" gradientTransform="matrix(1, 0, 0, -1, 0, 26.63)" gradientUnits="userSpaceOnUse"><stop offset="0" stop-color="#fff" stop-opacity="0.5"/><stop offset="1" stop-opacity="0.7"/></linearGradient></defs><g id="Capa_2" data-name="Capa 2"><g id="Capa_2-2" data-name="Capa 2"><g class="cls-1"><rect class="cls-2" x="7.2" y="0.26" width="21" height="24.38"/><g class="cls-1"><path class="cls-3" d="M26.11.35H9.2a1.05,1.05,0,0,0-1,1.06V21.84a1,1,0,0,0,1,1.05H26.11a1,1,0,0,0,1.05-1.05V1.41A1.05,1.05,0,0,0,26.11.35Z"/></g></g><g class="cls-4"><rect class="cls-2" x="7.7" width="20.06" height="23.44"/><g class="cls-4"><path class="cls-3" d="M26.11.35H9.2a1.05,1.05,0,0,0-1,1.06V21.84a1,1,0,0,0,1,1.05H26.11a1,1,0,0,0,1.05-1.05V1.41A1.05,1.05,0,0,0,26.11.35Z"/></g></g><path class="cls-5" d="M18,.35H9.2a1.14,1.14,0,0,0-.4.08,1.13,1.13,0,0,0-.34.23A1.27,1.27,0,0,0,8.23,1a1.14,1.14,0,0,0-.07.41V6H18Z"/><path class="cls-5" d="M26.12.35H18V6h9.15V1.41a1.05,1.05,0,0,0-.3-.74A1.09,1.09,0,0,0,26.12.35Z"/><path class="cls-5" d="M27.16,11.62H18v5.63h9.15Z"/><path class="cls-5" d="M18,17.25V11.62H8.16V21.83a1.09,1.09,0,0,0,.07.4,1.18,1.18,0,0,0,.23.35,1.15,1.15,0,0,0,.35.22.9.9,0,0,0,.4.08H26.12a1,1,0,0,0,.41-.08,1,1,0,0,0,.34-.22,1,1,0,0,0,.23-.35,1.1,1.1,0,0,0,.08-.4V17.25Z"/><path class="cls-5" d="M18,6H8.15v5.64H18Z"/><path class="cls-5" d="M27.16,6H18v5.64h9.15Z"/><g class="cls-6"><rect class="cls-2" y="3.93" width="17.81" height="17.63"/><g class="cls-6"><path class="cls-3" d="M14.13,5.28H3.56A1.05,1.05,0,0,0,2.51,6.34V16.91A1,1,0,0,0,3.56,18H14.13a1.05,1.05,0,0,0,1.06-1.05V6.34A1.05,1.05,0,0,0,14.13,5.28Z"/></g></g><g class="cls-7"><rect class="cls-2" x="2.08" y="5.07" width="13.69" height="13.5"/><g class="cls-7"><path class="cls-3" d="M14.13,5.28H3.56A1.05,1.05,0,0,0,2.51,6.34V16.91A1,1,0,0,0,3.56,18H14.13a1.05,1.05,0,0,0,1.06-1.05V6.34A1.05,1.05,0,0,0,14.13,5.28Z"/></g></g><path class="cls-5" d="M14.13,5.28H3.56A1.05,1.05,0,0,0,2.51,6.34V16.91A1,1,0,0,0,3.56,18H14.13a1.05,1.05,0,0,0,1.06-1.05V6.34A1.05,1.05,0,0,0,14.13,5.28Z"/><path class="cls-3" d="M5.81,15.05,8,11.62,6,8.19H7.61l1.11,2.18c.1.21.17.36.21.47.07-.17.15-.33.23-.49l1.18-2.16h1.51L9.77,11.62l2.14,3.46H10.35l-1.29-2.4a1.87,1.87,0,0,1-.15-.32,1.23,1.23,0,0,1-.14.31L7.38,15.05Z"/><g class="cls-8"><path class="cls-9" d="M14.13,5.28H3.56A1.05,1.05,0,0,0,2.51,6.34V16.91A1,1,0,0,0,3.56,18H14.13a1.05,1.05,0,0,0,1.06-1.05V6.34A1.05,1.05,0,0,0,14.13,5.28Z"/></g></g></g></svg>