<svg width="23" height="22" viewBox="0 0 23 22" fill="none" xmlns="http://www.w3.org/2000/svg">
<mask id="mask0_7_21" style="mask-type:luminance" maskUnits="userSpaceOnUse" x="0" y="0" width="23" height="22">
<path d="M0 0H22.4909V21.952H0V0Z" fill="white"/>
</mask>
<g mask="url(#mask0_7_21)">
<path fill-rule="evenodd" clip-rule="evenodd" d="M20.7187 16.9805C19.4959 16.9464 18.5471 17.0718 17.752 17.4063C17.5231 17.4983 17.1556 17.4983 17.1254 17.7864C17.2478 17.9073 17.2626 18.1052 17.3698 18.2728C17.5532 18.577 17.8747 18.9868 18.165 19.1993L19.1435 19.8986C19.7399 20.263 20.4127 20.4759 20.9936 20.8407C21.3302 21.0536 21.6664 21.3271 22.003 21.5553C22.1744 21.677 22.2782 21.8748 22.4924 21.9504V21.9044C22.3855 21.7682 22.3547 21.5706 22.2481 21.4181L21.7888 20.9776C21.3456 20.385 20.7949 19.8679 20.1985 19.4428C19.7091 19.1083 18.639 18.6526 18.4402 18.0906L18.4101 18.0565C18.7459 18.0224 19.1435 17.9043 19.465 17.813C19.9853 17.6767 20.4589 17.7067 20.9936 17.5701L21.7281 17.3572V17.221C21.4529 16.9474 21.2541 16.5826 20.9638 16.3244C20.1841 15.6558 19.3272 15.0022 18.4402 14.4552C17.9662 14.1513 17.3544 13.9534 16.8499 13.6956C16.6659 13.6043 16.3604 13.5587 16.2535 13.4068C15.9776 13.0729 15.8251 12.6318 15.6263 12.2364L14.3726 9.5922C14.0973 8.99951 13.9287 8.40682 13.5928 7.85982C12.0176 5.27626 10.3046 3.71114 7.67437 2.17595C7.1088 1.85676 6.43599 1.71951 5.72074 1.55264L4.57393 1.49132C4.32887 1.38501 4.08449 1.0962 3.87024 0.959261C2.99868 0.412261 0.750616 -0.773114 0.107991 0.788949C-0.305009 1.77676 0.719741 2.7492 1.06768 3.25095C1.32812 3.60039 1.66405 3.99551 1.84805 4.39064C1.95093 4.64882 1.98518 4.9227 2.09243 5.1962C2.3368 5.86482 2.56649 6.60976 2.88762 7.23307C3.05899 7.55226 3.23893 7.88707 3.45312 8.17557C3.57549 8.34589 3.78968 8.41876 3.8353 8.69226C3.62105 8.99645 3.60637 9.45189 3.48399 9.83232C2.93318 11.5497 3.14743 13.6772 3.92718 14.9416C4.17224 15.3214 4.74974 16.1576 5.53324 15.8381C6.22149 15.5646 6.06793 14.6984 6.26674 13.9384C6.31299 13.7562 6.28212 13.6346 6.37362 13.5127V13.5468L7.00087 14.8081C7.47487 15.5526 8.30087 16.3279 8.98874 16.8449C9.35549 17.1185 9.64612 17.5899 10.1047 17.7568V17.7108H10.0746C9.98274 17.5745 9.84493 17.5133 9.72255 17.4069C9.44737 17.1334 9.14162 16.799 8.92743 16.4951C8.28549 15.6443 7.71993 14.7018 7.21505 13.7293C6.96999 13.2583 6.7558 12.7415 6.55768 12.2704C6.46518 12.0879 6.46518 11.814 6.31262 11.7234C6.08299 12.0573 5.74712 12.3468 5.57812 12.7569C5.28749 13.4101 5.2573 14.2157 5.15043 15.0516C5.08868 15.0669 5.11612 15.0516 5.08868 15.0856C4.59993 14.9644 4.4313 14.4623 4.24799 14.0373C3.78937 12.9581 3.71262 11.2258 4.11018 9.97945C4.21712 9.66032 4.67637 8.6572 4.49305 8.35339C4.40049 8.06451 4.09543 7.89764 3.9268 7.66939C3.72805 7.38057 3.51449 7.01607 3.37674 6.69695C3.00999 5.84539 2.82662 4.90357 2.42868 4.05239C2.24462 3.65726 1.92387 3.24682 1.66368 2.88239C1.37305 2.47195 1.05262 2.18307 0.822928 1.69701C0.746491 1.5267 0.639553 1.25626 0.761928 1.0737C0.792116 0.952136 0.853803 0.903386 0.975491 0.876136C1.17424 0.705824 1.74049 0.921761 1.93924 1.01239C2.5048 1.24064 2.9788 1.45314 3.4528 1.77195C3.66699 1.92389 3.89668 2.2127 4.17187 2.28901H4.49337C4.9828 2.39532 5.53293 2.32307 5.99118 2.45932C6.80174 2.7182 7.53555 3.09764 8.19362 3.50845C10.1966 4.76976 11.8486 6.56307 12.9646 8.70626C13.1479 9.0557 13.2244 9.37489 13.393 9.7397C13.7145 10.4846 14.1121 11.2442 14.4326 11.9741C14.7541 12.6884 15.0597 13.4183 15.5184 14.011C15.748 14.3301 16.6652 14.4971 17.0778 14.6643C17.3839 14.8006 17.8576 14.9232 18.1335 15.0901C18.6531 15.4093 19.173 15.774 19.6621 16.1235C19.9065 16.3054 20.6715 16.6855 20.7171 16.9887L20.7187 16.9805ZM5.12399 3.77414C4.9118 3.77226 4.70299 3.79757 4.49749 3.85007V3.88414H4.52762C4.64999 4.12732 4.86418 4.29457 5.01705 4.50745L5.36905 5.23707L5.39924 5.20301C5.61343 5.05107 5.72068 4.80789 5.72068 4.44345C5.62887 4.33714 5.61374 4.23057 5.53737 4.12426C5.44549 3.97239 5.24668 3.89607 5.12399 3.77482V3.77414Z" fill="#1E40AB"/>
</g>
</svg>
