<svg width="24" height="24" viewBox="0 0 24 24" fill="none" xmlns="http://www.w3.org/2000/svg">
<g clip-path="url(#clip0_22_897)">
<mask id="mask0_22_897" style="mask-type:alpha" maskUnits="userSpaceOnUse" x="0" y="0" width="24" height="24">
<path d="M16.9526 23.8682C17.3291 24.0161 17.7585 24.0066 18.1386 23.8223L23.0605 21.4353C23.5777 21.1844 23.9066 20.6568 23.9066 20.0781V3.89263C23.9066 3.31387 23.5777 2.78631 23.0605 2.53548L18.1386 0.148396C17.6398 -0.0934887 17.0561 -0.0342421 16.6184 0.286505C16.5558 0.332325 16.4962 0.383483 16.4404 0.439862L7.01781 9.10391L2.91354 5.9639C2.53148 5.6716 1.99707 5.69555 1.64223 6.02088L0.325854 7.22774C-0.10819 7.62568 -0.108688 8.3139 0.32478 8.71248L3.88413 11.9853L0.32478 15.2581C-0.108688 15.6567 -0.10819 16.345 0.325854 16.7429L1.64223 17.9497C1.99707 18.2751 2.53148 18.299 2.91354 18.0067L7.01781 14.8667L16.4404 23.5308C16.5894 23.6811 16.7644 23.7943 16.9526 23.8682ZM17.9336 6.51551L10.784 11.9853L17.9336 17.4551V6.51551Z" fill="white"/>
</mask>
<g mask="url(#mask0_22_897)">
<path d="M23.0751 2.5392L18.1493 0.148826C17.5792 -0.127859 16.8978 -0.0111469 16.4503 0.439841L0.324977 15.2581C-0.108754 15.6567 -0.108255 16.345 0.326052 16.7429L1.64322 17.9497C1.99829 18.2751 2.53302 18.299 2.91531 18.0067L22.3339 3.15932C22.9854 2.66122 23.9211 3.12952 23.9211 3.95368V3.89604C23.9211 3.31753 23.5923 2.79016 23.0751 2.5392Z" fill="#1E40AB"/>
<path d="M23.0751 21.4314L18.1493 23.8218C17.5792 24.0984 16.8978 23.9817 16.4503 23.5308L0.324977 8.71246C-0.108754 8.31389 -0.108255 7.62565 0.326052 7.22772L1.64322 6.02086C1.99829 5.69553 2.53302 5.67158 2.91531 5.96389L22.3339 20.8113C22.9854 21.3093 23.9211 20.8411 23.9211 20.0169V20.0746C23.9211 20.653 23.5923 21.1804 23.0751 21.4314Z" fill="#1E40AB"/>
<path d="M18.1339 23.8237C17.5636 24.1001 16.8822 23.9833 16.4347 23.5323C16.986 24.088 17.9288 23.6944 17.9288 22.9085V1.06515C17.9288 0.279237 16.986 -0.114351 16.4347 0.441372C16.8822 -0.00965724 17.5636 -0.126534 18.1339 0.149907L23.0589 2.53699C23.5764 2.78782 23.9055 3.31538 23.9055 3.89415V20.0796C23.9055 20.6583 23.5764 21.1859 23.0589 21.4367L18.1339 23.8237Z" fill="#1E40AB"/>
</g>
</g>
<defs>
<clipPath id="clip0_22_897">
<rect width="24" height="24" fill="white"/>
</clipPath>
</defs>
</svg>
