<?xml version="1.0" encoding="UTF-8"?>
<svg id="Layer_2" data-name="Layer 2" xmlns="http://www.w3.org/2000/svg" viewBox="0 0 1492.51 555.73">
  <defs>
    <style>
      .cls-1 {
        fill: none;
      }

      .cls-2 {
        fill: #e3e1e4;
      }
    </style>
  </defs>
  <g id="Layer_1" data-name="Layer 1">
    <g>
      <g>
        <path class="cls-1" d="M375.81,198.41s0-.09,0-.14c0,0,0,.05,0,.14Z"/>
        <path class="cls-1" d="M170.25,198.27s0,.09,0,.14c0-.08,0-.14,0-.14Z"/>
        <path class="cls-1" d="M302.47,424.81c12.38.89,37.62,6.02,43.97-10.72,5.98-15.78,2.99-30.91-21.53-32.51-24.52-1.6-45.78,30.55-41.19,49.25,0,0,6.36-6.91,18.75-6.02Z"/>
        <path class="cls-1" d="M201.14,483.97c-10.93-2.95-18.12-7.73-25.01-12.81-14.6-10.74-20.62-29.17-15.35-46.95.71-2.38.97-3.44,1.07-3.91-.03-.27-.07-.67-.11-1.01-.28-2.54-.75-6.78-.75-15.2,0-2.25.11-4.41.32-6.5-5.17-4.38-13.6-9.38-23.52-13.85-7.59-3.42-13.25-10.31-15.14-18.42l-9.92-42.55c-.43-1.85-.59-3.73-.48-5.59-5.64-.55-11.19-1.76-16.59-3.62-11.36-3.92-22.32-10.47-32.91-16.82-.06-.04-.12-.07-.19-.11.46,6.89,1.25,13.73,2.37,20.5l-43.28,28.71c-6.57,3.69-9.29,11.74-6.3,18.67l21.39,49.6c3,6.91,10.72,10.45,17.92,8.2l50.62-11.75c12.54,16.46,27.6,31.2,44.86,43.56l-10.24,50.98c-2.03,7.24,1.74,14.88,8.74,17.65l50.25,19.95c6.99,2.78,14.97-.17,18.46-6.83l16.34-26.12c-2.85-.33-5.76-.74-8.78-1.23-13.08-2.15-19.71-14.18-23.75-24.54Z"/>
        <path class="cls-1" d="M261.4,437.74c3.5-18.93-19.59-49.8-43.98-46.77s-26.5,18.3-19.61,33.71c7.31,16.34,32.21,9.76,44.52,8.15,12.31-1.61,19.06,4.92,19.06,4.92Z"/>
        <path class="cls-1" d="M504.99,232.51l19.41-12.93c6.57-3.69,9.29-11.74,6.29-18.65l-11.71-27.15c-3.11,16.86-10.23,35.64-25.05,52.63,4.2,2.02,7.89,4.11,11.06,6.1Z"/>
        <path class="cls-1" d="M145.19,114.95c-11.11,8.45-21.41,18.07-30.75,28.73,3.63,5.71,10.06,12.41,18.29,16.86,3.79,2.05,7.81,3.34,11.46,4.13,4-4.11,8.19-7.69,12.16-10.37,10.58-7.15,23.85-10.49,41.75-10.49,6.98,0,14.99.48,25.19,1.5,8.4.84,16.3,2.11,23.94,3.33,9.18,1.47,17.85,2.86,24.61,2.95.2,0,.41,0,.61,0,6.36,0,13.91-1.25,22.65-2.7,7.42-1.23,15.84-2.63,25.42-3.58,10.21-1.02,18.22-1.5,25.2-1.5,17.9,0,31.17,3.33,41.75,10.49,3.97,2.68,8.16,6.27,12.16,10.37,3.65-.8,7.67-2.08,11.46-4.13,8.97-4.86,15.8-12.38,19.2-18.38-10.2-11.44-21.72-21.85-34.48-30.95l10.3-50.87c2.04-7.26-1.73-14.9-8.75-17.68l-50.18-19.92c-7.02-2.79-14.99.16-18.47,6.85l-27.48,44.08c-21.1-2.85-42.19-2.44-62.65.95l-28.71-43.28c-3.69-6.57-11.75-9.32-18.68-6.33l-49.58,21.4c-6.93,2.99-10.48,10.74-8.21,17.94l11.75,50.62Z"/>
        <path class="cls-1" d="M49.88,226.41c-13.84-15.86-20.96-33.28-24.37-49.24l-12.46,31.37c-2.78,7,.19,14.98,6.85,18.47l14.05,8.76c4.04-2.86,9.36-6.19,15.93-9.35Z"/>
        <path class="cls-1" d="M333.47,476.17c4,.94,18.67,1.31,27.35-5.1,7.75-5.73,5.79-15.56,3.89-20.99,2.3-2.67,6.72-8.29,8.36-13.7,2.25-7.45-3.92-21.24-4.49-30.81-.16-2.6-.03-6.77.58-11.67,7.91-9.31,23.64-17.22,31.99-20.99,3.49-1.57,6.04-4.68,6.91-8.42l9.92-42.55c.33-1.42.05-2.92-.79-4.12-1.95-2.78-5.8-8.43-9.88-15.28-.02-.03-.03-.06-.04-.08,7.59,2.49,21.45,5.22,37.26-.23,23.96-8.26,49.9-32.38,69.01-31.67,0,0,5.31.24,3.42-5.79-1.63-5.2-19.57-23.16-49.61-30.25,33.18-24.25,39.54-57.38,40.21-77.85.81-24.66-19.71-55.49-28.15-70.2-8.45-14.72-26.65-45.04-30.54-56.77s-5.35-17.7-5.35-17.7c-3.76,11.32-5.48,15.85-7.76,41.1-2.28,25.25,13.65,56.78,12.67,85.4-.44,13.02-14.14,29.22-29.24,37.4-8.61,4.66-17.76,6.33-24.04,6.9-.32-.39-.64-.77-.96-1.15-4.74-5.56-9.67-9.96-13.77-12.73-13.13-8.88-31.42-9.14-57.3-6.55-21.18,2.12-36.66,6.53-50.33,6.35-13.67-.18-31.17-4.49-49.81-6.35-25.88-2.59-44.17-2.32-57.3,6.55-4.11,2.78-9.04,7.18-13.77,12.73-.32.38-.64.76-.96,1.15-6.28-.57-15.43-2.23-24.04-6.9-15.1-8.17-28.79-24.37-29.24-37.4-.97-28.61,14.96-60.14,12.67-85.4-2.28-25.25-4-29.79-7.76-41.1,0,0-1.46,5.97-5.35,17.7-3.89,11.73-22.09,42.05-30.54,56.77-8.45,14.72-28.96,45.54-28.15,70.2.67,20.48,7.03,53.61,40.21,77.85-30.04,7.08-47.98,25.05-49.61,30.25-1.89,6.03,3.42,5.79,3.42,5.79,19.11-.71,45.05,23.41,69.01,31.67,15.82,5.45,29.67,2.72,37.26.23-.02.03-.03.06-.04.08-4.09,6.85-7.94,12.5-9.88,15.28-.84,1.2-1.12,2.69-.79,4.12l9.92,42.55c.87,3.73,3.42,6.84,6.91,8.42,8.8,3.97,25.81,12.54,33.21,22.5-.9,3.24-1.4,6.91-1.4,11.18,0,18.78,2.45,13.28-.82,24.28-3.27,11-.36,23.4,10,31.02,7.02,5.17,14,9.95,27.36,11.95,2.72,8,7.15,21.44,15.11,22.75,15.38,2.52,26.38,2.5,41.58,1.64,15.2-.87,24.08-.21,36.35-.21s13.75-5.47,16.73-11.43c2.98-5.96,6.41-11.35,10.41-10.41ZM404.17,328.16l-4.83,25.86c-1.14,6.1-5.23,11.32-10.99,13.63-6.83,2.73-12,6.57-15.6,9.9,3.05-9.27,8.05-18.24,16.03-23.01,0,0-17.3,9.22-22.04,20.82,0,0-1.94-13.9-15.71-15.31-4.11-.42-8.98-.01-14.3,1-.06-.04-.13-.08-.2-.12l1.05-.13c4.52-10.17.02-21.17-4.82-28.89,11.99,4.2,42.33,13.36,49.9,1.61,0,0-3.43,1.57-15.82.13,0,0,19.21-5.58,22.94-19.51,0,0-9.96,7-18.06,9.62,0,0,12.92-11.16,19.69-37.46,4.03-.79,6.41-.9,6.41-.9-3.08,12.28,1.13,23.46,4.45,29.78,2.09,3.98,2.74,8.56,1.91,12.98ZM355.36,320.21c8.81-4.12,9.94-17.88,9.98-24.31,6.09-3.3,11.78-5.59,16.63-7.14-2.71,8.35-9.89,27.36-20.8,33.04-11.66,6.06-29.92,1.94-35.95.32-.19-.2-.3-.32-.3-.32,0,0,1.33-.65,4.46-2.52,5.56,1.88,17.38,4.96,25.99.94ZM340.1,313.38l15.8-11.81c4.07-3.54.27,20.15-15.8,11.81ZM489.12,124.09c8.47,21.4,10.2,42.44,5.39,56.54-9.59,28.06-29.22,45.03-38.58,51.84-1.26-.16-2.53-.3-3.82-.41-18.78-1.68-31.43-2.76-40.24-4.08.24-2.87.19-5.72-.09-8.53,36.51-1.27,47.79-29.68,47.79-29.68l3.06,6.96,9.16-11.98c.85,2.13,2.78,7.88,2.78,7.88,0,0,6.33-7.91,8.29-16.33,8.8-37.87-21.19-86.09-27.26-100.07-6.44-14.85-10.08-36.62-10.08-36.62,2.64,11.65,29.48,48.83,43.59,84.49ZM452.97,155.64c8.9-17.96-5.46-80.39-5.46-80.39,6.96,16.33,21.94,46.35,25.97,64.43,5.24,23.51.66,35.63.66,35.63-1.03-5.47-3.46-8.23-3.46-8.23l-7.54,14.68c-1.22-6.49-4.42-7.88-4.42-7.88,0,0-10.78,34.3-48.64,36.57-2-7.25-5.39-14.07-9.36-20.1,28.9-7.3,44.96-20.03,52.24-34.71ZM93.11,155.64c7.28,14.69,23.35,27.42,52.24,34.71-3.97,6.03-7.35,12.86-9.36,20.1-44.96,0-47.82-39.89-47.82-39.89,0,0-3.88,4.02-5.23,11.2l-6.91-14.73s-2.89,1.87-4.1,8.28c0,0-5.73-18.27-.52-36.04,5.21-17.77,22.23-44.36,27.15-64.02,0,0-14.36,62.43-5.46,80.39ZM51.57,180.62c-4.82-14.1-3.08-35.14,5.39-56.54,14.11-35.66,40.95-72.84,43.59-84.49,0,0-3.64,21.77-10.08,36.62-6.17,14.24-36.49,61.76-26.6,99.87,2.55,8.66,8.79,12.8,8.79,12.8,0,0-.16-1.76.32-2.77.47-1.01,1.3-1.37,1.3-1.37,0,0,.04.07.11.18l.05.09c.12.19.3.48.54.86l.47.74c.05.08.11.17.16.25l1.12,1.77c.39.62.83,1.32,1.32,2.09l.88,1.39c1.11,1.76,2.41,3.81,3.9,6.17l.54-1.24c.22-.51.43-1.01.64-1.49l1-2.32c.19-.43.36-.83.52-1.2l.26-.6c.21-.48.38-.87.5-1.15l.12-.28c.06-.14.1-.23.1-.23,0,0,11.28,28.41,47.79,29.68-.28,2.81-.32,5.66-.09,8.53-8.81,1.32-21.46,2.4-40.24,4.08-1.29.12-2.56.25-3.82.41-9.36-6.81-28.99-23.79-38.58-51.84ZM136.87,270.79c-29.45-34.57-98.77-6.14-98.77-6.14,0,0,13.52-12.26,34.96-18.54,14.41-4.22,25.75-6.38,25.75-6.38,7.84-1.19,14.54-2.48,20.27-3.79,28.97-6.67,33.11-14.16,33.11-14.16-2.7,2.44-6.46,4.02-12.71,5.28.09-3.66,1.27-13.8,10.37-27.32,11.51-17.11,24.65-26.37,38.43-28.12,13.78-1.75,26.29-1.57,47.62,2.28,21.33,3.85,31.83,6.28,37.83,6.32,6,.05,15.12-2.47,36.46-6.32s33.84-4.04,47.62-2.28,26.93,11.01,38.43,28.12c9.09,13.52,10.27,23.66,10.37,27.32-6.26-1.27-10.01-2.85-12.71-5.28,0,0,4.14,7.49,33.11,14.16,5.73,1.32,12.44,2.61,20.27,3.79,0,0,11.34,2.15,25.75,6.38,21.44,6.28,34.96,18.54,34.96,18.54,0,0-69.31-28.43-98.77,6.14-.56-7.47-5.81-15.11-13.07-20.22,2.81-11.97-5.23-20.12-12.87-32.91-7.38-12.35-7.49-18.35-7.46-19.25-.93,12.04,5.25,26.97,8.88,35.99,2.04,5.06,2.02,8.93,1.61,11.35-3.11-.94-6.34-1.39-9.57-1.2-16.13.93-23.38,14.86-23.38,14.86,11.59-11.59,23.97-10.06,29.11-7.43s10.16,9.84,9.29,19.05c-.87,9.21-25.39,15.95-25.39,15.95,2.74-4.38,15.02-13.01,15.02-13.01-12.86-1.77-49.77,36.23-51.1,36.85-1.33.62-11.66,6.73-16.58-2.37-5.83-10.78.17-26.27.17-26.27-14.74,14.74-10.93,26.75-5.63,33.92-3.86.93-9.71,1.12-14.72-3.9-10.14-10.14-9.62-28.67-4.58-36.04,0,0-18.46,17.16-2.15,38.47-4.97-1.14-12.19-5.88-10.07-24.25,0,0-11.11,33.21,17.21,31.79.09.08.17.16.27.24,0,0,10.13,6.36,21.66,1.05,14.9,9.89,14.45,25.33,12.98,33.36-7.25-3.45-17.57-7.23-30.47-9.11-.85-3.09-2.8-7.35-7.26-11.81,0,0,2.31,6.19,1.78,11.15-5.89-.57-12.23-.73-19.03-.27-7.41.49-14.11,1.39-20.18,2.54-1.84-5.07,1.28-13.42,1.28-13.42-6.19,6.19-7.56,12-7.84,14.8-12.56,2.99-21.95,7.1-28.69,10.95-1.07-3.22-7.55-25.39,11.77-38.2,11.53,5.31,21.66-1.05,21.66-1.05.09-.08.18-.16.27-.24,28.33,1.42,17.21-31.79,17.21-31.79,2.12,18.37-5.1,23.11-10.07,24.25,16.31-21.31-2.15-38.47-2.15-38.47,5.04,7.37,5.56,25.9-4.58,36.04-5.01,5.01-10.87,4.83-14.72,3.9,5.29-7.17,9.11-19.17-5.63-33.92,0,0,5.99,15.5.17,26.27-4.92,9.1-15.25,2.99-16.58,2.37-1.33-.62-38.24-38.62-51.1-36.85,0,0,12.28,8.63,15.02,13.01,0,0-24.52-6.74-25.39-15.95-.87-9.21,4.15-16.41,9.29-19.05,5.14-2.63,17.52-4.16,29.11,7.43,0,0-7.26-13.93-23.38-14.86-3.22-.19-6.45.26-9.57,1.2-.41-2.43-.43-6.29,1.61-11.35,3.64-9.02,9.82-23.95,8.88-35.99.03.9-.08,6.9-7.46,19.25-7.64,12.79-15.68,20.95-12.86,32.92-7.26,5.1-12.51,12.74-13.08,20.21ZM190.71,320.21c8.61,4.02,20.42.94,25.99-.94,3.13,1.87,4.46,2.52,4.46,2.52,0,0-.11.11-.3.32-6.03,1.62-24.29,5.74-35.95-.32-10.91-5.67-18.1-24.68-20.8-33.04,4.85,1.55,10.53,3.84,16.63,7.14.03,6.43,1.16,20.2,9.98,24.31ZM189.85,302.65s11.56,8.49,16.22,11.22-19.02,6.66-16.22-11.22ZM184.33,383.63c-2.45-15.15-18.11-25.76-18.11-25.76,8.76,13.62,9.88,18.36,11.85,24.72-2.75-3.42-9.45-10.59-20.33-14.94-5.76-2.31-9.85-7.53-10.99-13.63l-4.83-25.86c-.83-4.42-.18-9,1.91-12.98,3.32-6.33,7.52-17.51,4.45-29.78,0,0,2.38.11,6.41.9,6.77,26.3,19.69,37.46,19.69,37.46-8.1-2.62-18.06-9.62-18.06-9.62,3.73,13.93,22.94,19.51,22.94,19.51-12.39,1.44-15.82-.13-15.82-.13,7.58,11.76,37.91,2.59,49.9-1.61-3.96,6.31-7.68,14.81-6.45,23.25.05,2.56.58,7.36,3.33,11.94-.58.45-1.12.88-1.61,1.29-3.6.5-7.11,1.56-10.02,3.51-5.56,3.7-10.48,7.26-14.25,11.72ZM204.29,461.48c-9.1-3.59-18.43-12.92-16.73-25.1,1.7-12.18,1.24-20.44-.19-28.58-1.43-8.14,5.36-23.52,24.68-27.13,19.32-3.61,37.17-4.06,47.69-4.47,0,0-23-4.29-30.96-6.34-.12-.03-.27-.06-.4-.1,5.98-4.21,19.98-11.13,47.33-11.13s39.25,4.48,43.87,7.18c-8.08,2.82-16.49,6.42-24.53,10.39,0,0,17.29-2.73,32.09-6.34,14.79-3.61,24.6-.47,28.16,6.13s-2.78,19.39.83,35.68c1.91,8.62,9.66,19.92,1.04,31.8-2.27,3.12-16.26-4-33.47,3.1-17.22,7.1-31.26,9.88-49.4,13.69-18.14,3.81-60.9,4.82-70,1.22ZM315.51,483.31c-4.95,6.19-8.12,5.51-20.82,4.9-12.7-.61-34.27,2.32-56.94,1.22-11.56-.56-14.86-9.2-15.78-14.76,4.49.22,9.56.19,15.37-.14,30.82-1.77,59.61-10.71,71.22-13.67,11.6-2.96,31.6-10,47.91-4.91.41,11.4-15.47,9.16-34.24,10.42-20.57,1.38-29.18,10.82-29.18,10.82,7.5-4.56,33.26-5.1,33.26-5.1,0,0-5.86,5.04-10.82,11.22Z"/>
        <path class="cls-1" d="M526.19,338.38l-44.12-27.57c.7-5.2,1.21-10.39,1.52-15.58-.85.51-1.69,1.01-2.53,1.51-10.59,6.34-21.55,12.9-32.91,16.82-5.4,1.86-10.95,3.07-16.59,3.62.1,1.86-.05,3.74-.48,5.59l-9.92,42.55c-1.89,8.12-7.55,15-15.14,18.42-10.21,4.6-18.78,9.72-23.93,14.21-.11,1.88-.11,3.35-.06,4.25.15,2.47,1.12,6.38,2.06,10.15,2.13,8.57,4.34,17.43,1.83,25.75-1.4,4.64-3.88,9.07-6.48,12.84,1.85,12.09-2.04,22.72-11.07,29.39-9.99,7.38-22.96,8.48-29.79,8.48-.78,0-1.66-.01-2.6-.05-.28.52-.61,1.14-.97,1.86-.22.45-.44.89-.65,1.33-2.24,4.64-5.89,12.2-15.65,15.94l17.43,26.18c3.69,6.57,11.74,9.29,18.67,6.3l49.64-21.42c6.9-2.98,10.46-10.69,8.21-17.88l-11.67-50.69c16.42-12.51,31.13-27.55,43.47-44.77l50.95,10.23c7.27,2.01,14.88-1.74,17.66-8.76l19.95-50.25c2.78-6.99-.18-14.94-6.83-18.46Z"/>
        <path class="cls-2" d="M71.93,175.31c1.21-6.42,4.1-8.28,4.1-8.28l6.91,14.73c1.35-7.18,5.23-11.2,5.23-11.2,0,0,2.87,39.89,47.82,39.89,2-7.25,5.39-14.07,9.36-20.1-28.9-7.3-44.96-20.03-52.24-34.71-8.9-17.96,5.46-80.39,5.46-80.39-4.93,19.66-21.94,46.24-27.15,64.02-5.21,17.77.52,36.04.52,36.04Z"/>
        <path class="cls-2" d="M458.72,173.89s3.2,1.38,4.42,7.88l7.54-14.68s2.43,2.76,3.46,8.23c0,0,4.58-12.13-.66-35.63-4.03-18.08-19.01-48.1-25.97-64.43,0,0,14.36,62.43,5.46,80.39-7.28,14.69-23.35,27.42-52.24,34.71,3.97,6.03,7.35,12.86,9.36,20.1,37.85-2.27,48.64-36.57,48.64-36.57Z"/>
        <path class="cls-2" d="M93.96,232.06c18.78-1.68,31.43-2.76,40.24-4.08-.24-2.87-.19-5.72.09-8.53-36.51-1.27-47.79-29.68-47.79-29.68,0,0-.04.08-.1.23l-.12.28c-.12.28-.29.67-.5,1.15l-.26.6c-.16.37-.33.77-.52,1.2l-1,2.32c-.21.48-.42.98-.64,1.49l-.54,1.24c-1.49-2.36-2.79-4.41-3.9-6.17l-.88-1.39c-.49-.77-.93-1.47-1.32-2.09l-1.12-1.77c-.05-.09-.11-.17-.16-.25l-.47-.74c-.24-.38-.43-.68-.54-.86l-.05-.09c-.07-.11-.11-.18-.11-.18,0,0-.83.36-1.3,1.37-.47,1.01-.32,2.77-.32,2.77,0,0-6.24-4.14-8.79-12.8-9.89-38.11,20.43-85.63,26.6-99.87,6.44-14.85,10.08-36.62,10.08-36.62-2.64,11.65-29.48,48.83-43.59,84.49-8.47,21.4-10.2,42.44-5.39,56.54,9.59,28.06,29.22,45.03,38.58,51.84,1.26-.16,2.53-.3,3.82-.41Z"/>
        <path class="cls-2" d="M149.94,250.58c-2.82-11.97,5.22-20.13,12.86-32.92,7.38-12.35,7.49-18.35,7.46-19.25.93,12.04-5.25,26.97-8.88,35.99-2.04,5.06-2.02,8.93-1.61,11.35,3.11-.94,6.34-1.39,9.57-1.2,16.13.93,23.38,14.86,23.38,14.86-11.59-11.59-23.97-10.06-29.11-7.43-5.14,2.63-10.16,9.84-9.29,19.05.87,9.21,25.39,15.95,25.39,15.95-2.74-4.38-15.02-13.01-15.02-13.01,12.86-1.77,49.77,36.23,51.1,36.85,1.33.62,11.66,6.73,16.58-2.37,5.83-10.78-.17-26.27-.17-26.27,14.74,14.74,10.93,26.75,5.63,33.92,3.86.93,9.71,1.12,14.72-3.9,10.14-10.14,9.62-28.67,4.58-36.04,0,0,18.46,17.16,2.15,38.47,4.97-1.14,12.19-5.88,10.07-24.25,0,0,11.11,33.21-17.21,31.79-.09.08-.17.16-.27.24,0,0-10.13,6.36-21.66,1.05-19.32,12.82-12.84,34.98-11.77,38.2,6.74-3.86,16.13-7.96,28.69-10.95.28-2.81,1.65-8.61,7.84-14.8,0,0-3.12,8.34-1.28,13.42,6.07-1.15,12.77-2.04,20.18-2.54,6.8-.45,13.14-.29,19.03.27.53-4.96-1.78-11.15-1.78-11.15,4.46,4.46,6.41,8.72,7.26,11.81,12.9,1.88,23.22,5.66,30.47,9.11,1.47-8.03,1.92-23.48-12.98-33.36-11.53,5.31-21.66-1.05-21.66-1.05-.09-.08-.18-.16-.27-.24-28.33,1.42-17.21-31.79-17.21-31.79-2.12,18.37,5.1,23.11,10.07,24.25-16.31-21.31,2.15-38.47,2.15-38.47-5.04,7.37-5.56,25.9,4.58,36.04,5.01,5.01,10.87,4.83,14.72,3.9-5.29-7.17-9.11-19.17,5.63-33.92,0,0-5.99,15.5-.17,26.27,4.92,9.1,15.25,2.99,16.58,2.37,1.33-.62,38.24-38.62,51.1-36.85,0,0-12.28,8.63-15.02,13.01,0,0,24.52-6.74,25.39-15.95.87-9.21-4.15-16.41-9.29-19.05s-17.52-4.16-29.11,7.43c0,0,7.26-13.93,23.38-14.86,3.22-.19,6.45.26,9.57,1.2.41-2.43.43-6.29-1.61-11.35-3.64-9.02-9.82-23.95-8.88-35.99-.03.9.08,6.9,7.46,19.25,7.64,12.79,15.68,20.94,12.87,32.91,7.26,5.1,12.51,12.75,13.07,20.22,29.45-34.57,98.77-6.14,98.77-6.14,0,0-13.52-12.26-34.96-18.54-14.41-4.22-25.75-6.38-25.75-6.38-7.84-1.19-14.54-2.48-20.27-3.79-28.97-6.67-33.11-14.16-33.11-14.16,2.7,2.44,6.46,4.02,12.71,5.28-.09-3.66-1.27-13.8-10.37-27.32-11.51-17.11-24.65-26.37-38.43-28.12s-26.29-1.57-47.62,2.28-30.46,6.37-36.46,6.32c-6-.05-16.49-2.47-37.83-6.32-21.33-3.85-33.84-4.04-47.62-2.28-13.78,1.75-26.93,11.01-38.43,28.12-9.09,13.52-10.27,23.66-10.37,27.32,6.26-1.27,10.01-2.85,12.71-5.28,0,0-4.14,7.49-33.11,14.16-5.73,1.32-12.44,2.61-20.27,3.79,0,0-11.34,2.15-25.75,6.38-21.44,6.28-34.96,18.54-34.96,18.54,0,0,69.31-28.43,98.77,6.14.56-7.47,5.82-15.11,13.08-20.21ZM375.82,198.27s0,.09,0,.14c0-.08,0-.14,0-.14ZM170.26,198.41s0-.09,0-.14c0,0,0,.05,0,.14Z"/>
        <path class="cls-2" d="M397.81,285.41s-2.38.11-6.41.9c-6.77,26.3-19.69,37.46-19.69,37.46,8.1-2.62,18.06-9.62,18.06-9.62-3.73,13.93-22.94,19.51-22.94,19.51,12.39,1.44,15.82-.13,15.82-.13-7.58,11.76-37.91,2.59-49.9-1.61,4.84,7.72,9.34,18.72,4.82,28.89l-1.05.13c.06.04.13.08.2.12,5.33-1.02,10.2-1.42,14.3-1,13.77,1.41,15.71,15.31,15.71,15.31,4.74-11.59,22.04-20.82,22.04-20.82-7.97,4.78-12.98,13.74-16.03,23.01,3.6-3.33,8.76-7.17,15.6-9.9,5.76-2.31,9.85-7.53,10.99-13.63l4.83-25.86c.83-4.42.18-9-1.91-12.98-3.32-6.33-7.52-17.51-4.45-29.78Z"/>
        <path class="cls-2" d="M355.89,301.58l-15.8,11.81c16.06,8.35,19.87-15.35,15.8-11.81Z"/>
        <path class="cls-2" d="M180.73,295.89c-6.09-3.3-11.78-5.59-16.63-7.14,2.71,8.35,9.89,27.36,20.8,33.04,11.66,6.06,29.92,1.94,35.95.32.19-.2.3-.32.3-.32,0,0-1.33-.65-4.46-2.52-5.56,1.88-17.38,4.96-25.99.94-8.81-4.12-9.95-17.88-9.98-24.31Z"/>
        <path class="cls-2" d="M324.91,321.79s.11.11.3.32c6.03,1.62,24.29,5.74,35.95-.32,10.91-5.67,18.1-24.68,20.8-33.04-4.85,1.55-10.53,3.84-16.63,7.14-.03,6.43-1.16,20.2-9.98,24.31-8.61,4.02-20.42.94-25.99-.94-3.13,1.87-4.46,2.52-4.46,2.52Z"/>
        <path class="cls-2" d="M482.87,176.29c-1.96,8.42-8.29,16.33-8.29,16.33,0,0-1.93-5.74-2.78-7.88l-9.16,11.98-3.06-6.96s-11.28,28.41-47.79,29.68c.28,2.81.32,5.66.09,8.53,8.81,1.32,21.46,2.4,40.24,4.08,1.29.12,2.56.25,3.82.41,9.36-6.81,28.99-23.79,38.58-51.84,4.82-14.1,3.08-35.14-5.39-56.54-14.11-35.66-40.95-72.84-43.59-84.49,0,0,3.64,21.77,10.08,36.62,6.06,13.98,36.06,62.2,27.26,100.07Z"/>
        <path class="cls-2" d="M293.06,477.19s8.61-9.43,29.18-10.82c18.77-1.26,34.65.98,34.24-10.42-16.32-5.09-36.32,1.95-47.91,4.91-11.61,2.96-40.4,11.9-71.22,13.67-5.81.33-10.89.36-15.37.14.92,5.56,4.22,14.2,15.78,14.76,22.66,1.09,44.24-1.84,56.94-1.22,12.7.61,15.86,1.29,20.82-4.9,4.95-6.19,10.82-11.22,10.82-11.22,0,0-25.77.54-33.26,5.1Z"/>
        <path class="cls-2" d="M532.24,328l-37.36-23.35c.29-2.9.52-5.81.69-8.71.14-2.34-.42-4.63-1.53-6.6,7.13-3.85,13.87-6.8,18.65-6.8.11,0,.22,0,.33,0,.07,0,.27.01.58.01,5.14,0,9.93-2.34,12.81-6.27,1.76-2.39,4.35-7.54,1.98-15.1-2.3-7.34-11.02-14.86-16.38-18.94l18.71-12.46c11.65-6.84,16.37-21.2,10.97-33.63l-11.7-27.12c-1.87-4.34-6.08-7.12-10.7-7.24.11-1.61.19-3.19.24-4.73.82-25.13-16.1-53.59-26.22-70.59-1.3-2.18-2.53-4.25-3.52-5.98-1.38-2.41-3.02-5.23-4.82-8.32-8.18-14.07-21.87-37.61-24.73-46.25-3.65-11-5.07-16.73-5.09-16.79-1.28-5.19-5.84-8.91-11.18-9.12-.16,0-.32,0-.47,0-5.15,0-9.75,3.29-11.39,8.21l-.37,1.1c-3.9,11.72-5.72,17.95-7.96,42.7-1.34,14.8,2.54,30.67,6.3,46.02,2.7,11.02,5.47,22.35,6.19,32.89-8.38-9.02-17.48-17.34-27.19-24.81l8.71-43.02c3.41-13.07-3.4-26.59-16.01-31.59l-50.18-19.92c-3.16-1.26-6.49-1.89-9.88-1.89h0c-9.81,0-18.74,5.31-23.42,13.89l-23.24,37.29c-7.3-.72-14.67-1.09-21.98-1.09-9.57,0-19.19.62-28.72,1.86l-24.29-36.61c-4.79-8.17-13.59-13.22-23.08-13.22-3.65,0-7.21.74-10.57,2.19l-49.58,21.4c-7.16,3.09-12.31,8.92-14.68,15.79-2.2-24.03-4.02-30.26-7.88-41.85l-.37-1.1c-1.63-4.92-6.24-8.22-11.38-8.22-.16,0-.32,0-.49,0-5.34.21-9.9,3.94-11.17,9.13-.01.04-1.44,5.77-5.08,16.78-2.86,8.64-16.55,32.17-24.73,46.24-1.8,3.1-3.44,5.92-4.83,8.34-1,1.73-2.22,3.8-3.52,5.98-4.84,8.13-11.46,19.27-16.78,31.22-6.73,15.13-9.82,28.01-9.44,39.38.09,2.63.26,5.38.53,8.21-.18-.02-.37-.05-.55-.07-.34-.03-.67-.04-1.01-.04-4.88,0-9.32,2.97-11.15,7.57l-12.46,31.37c-5,12.58.15,26.8,11.98,33.28l13.72,8.55c.38.24.78.45,1.18.64-4.61,4.1-9.47,9.4-11.1,14.6-2.37,7.57.22,12.71,1.98,15.11,2.88,3.93,7.68,6.27,12.81,6.27.31,0,.51,0,.58-.01.11,0,.22,0,.33,0,4.99,0,11.9,3.08,19.37,7.18-1.55,2.21-2.34,4.91-2.16,7.7.31,4.65.76,9.31,1.36,13.92l-36.61,24.29c-11.64,6.82-16.38,21.19-11,33.63l21.38,49.6c4.26,9.81,13.88,16.12,24.53,16.12,2.53,0,5.05-.36,7.49-1.07l42.83-9.95c10.73,13.11,22.9,24.92,36.3,35.25l-8.67,43.14c-3.39,13.06,3.41,26.55,16,31.55l50.25,19.95c3.16,1.25,6.47,1.89,9.86,1.89,9.79,0,18.71-5.29,23.41-13.84l16.13-25.79c1.07-1.71,1.67-3.63,1.79-5.58,2.84.14,5.7.22,8.64.22,4.68,0,9.73-.17,16.38-.55,5.14-.29,9.94-.43,15.1-.43,3.37,0,6.51.06,9.82.11,3.39.06,6.9.12,10.74.12.2,0,.39,0,.58,0,.29,1.6.88,3.15,1.81,4.54l17.21,25.86c4.78,8.15,13.56,13.19,23.03,13.19,3.66,0,7.22-.74,10.59-2.19l49.64-21.42c12.43-5.37,18.84-19.04,15.06-31.98l-9.88-42.9c13.06-10.69,24.84-22.82,35.16-36.21l43.14,8.66c2.19.56,4.44.85,6.69.85,11.03,0,20.78-6.62,24.85-16.87l19.95-50.25c4.98-12.55-.15-26.75-11.94-33.26ZM530.69,200.93c3,6.91.28,14.96-6.29,18.65l-19.41,12.93c-3.17-1.99-6.86-4.08-11.06-6.1,14.82-16.99,21.94-35.77,25.05-52.63l11.71,27.15ZM141.64,46.4l49.58-21.4c6.93-2.99,14.99-.24,18.68,6.33l28.71,43.28c20.45-3.39,41.55-3.8,62.65-.95l27.48-44.08c3.48-6.69,11.45-9.64,18.47-6.85l50.18,19.92c7.02,2.79,10.79,10.42,8.75,17.68l-10.3,50.87c12.76,9.11,24.27,19.51,34.48,30.95-3.4,6-10.24,13.53-19.2,18.38-3.79,2.05-7.81,3.34-11.46,4.13-4-4.11-8.19-7.69-12.16-10.37-10.58-7.15-23.85-10.49-41.75-10.49-6.98,0-14.99.48-25.2,1.5-9.58.96-18,2.35-25.42,3.58-8.74,1.45-16.3,2.7-22.65,2.7-.2,0-.41,0-.61,0-6.76-.09-15.43-1.48-24.61-2.95-7.64-1.22-15.53-2.49-23.94-3.33-10.21-1.02-18.21-1.5-25.19-1.5-17.9,0-31.17,3.33-41.75,10.49-3.97,2.68-8.16,6.27-12.16,10.37-3.65-.8-7.67-2.08-11.46-4.13-8.23-4.45-14.65-11.15-18.29-16.86,9.34-10.66,19.64-20.28,30.75-28.73l-11.75-50.62c-2.27-7.2,1.28-14.95,8.21-17.94ZM115.98,98.04c2.43-9.93,4.9-20.07,5.99-30.01l9.81,42.22c-7.75,6.35-15.11,13.28-21.99,20.69.72-10.54,3.49-21.87,6.19-32.9ZM19.9,227c-6.66-3.49-9.63-11.47-6.85-18.47l12.46-31.37c3.42,15.96,10.54,33.39,24.37,49.24-6.57,3.16-11.89,6.49-15.93,9.35l-14.05-8.76ZM217.33,535.86c-3.49,6.66-11.46,9.61-18.46,6.83l-50.25-19.95c-7-2.78-10.76-10.41-8.74-17.65l10.24-50.98c-17.27-12.36-32.32-27.1-44.86-43.56l-50.62,11.75c-7.19,2.25-14.92-1.29-17.92-8.2l-21.39-49.6c-2.99-6.93-.27-14.98,6.3-18.67l43.28-28.71c-1.12-6.77-1.91-13.61-2.37-20.5.06.04.12.07.19.11,10.59,6.34,21.55,12.9,32.91,16.82,5.4,1.86,10.95,3.07,16.59,3.62-.1,1.86.05,3.74.48,5.59l9.92,42.55c1.89,8.12,7.55,15,15.14,18.42,9.92,4.47,18.35,9.47,23.52,13.85-.22,2.09-.32,4.25-.32,6.5,0,8.42.47,12.67.75,15.2.04.34.08.74.11,1.01-.1.47-.37,1.53-1.07,3.91-5.27,17.78.75,36.21,15.35,46.95,6.9,5.07,14.09,9.86,25.01,12.81,4.04,10.36,10.67,22.39,23.75,24.54,3.02.5,5.92.9,8.78,1.23l-16.34,26.12ZM306.32,498c-12.27,0-21.16-.65-36.35.21-15.2.87-26.2.89-41.58-1.64-7.95-1.31-12.39-14.75-15.11-22.75-13.36-2-20.34-6.79-27.36-11.95-10.36-7.62-13.26-20.01-10-31.02,3.27-11,.82-5.5.82-24.28,0-4.27.5-7.93,1.4-11.18-7.4-9.96-24.41-18.54-33.21-22.5-3.49-1.57-6.04-4.68-6.91-8.42l-9.92-42.55c-.33-1.42-.05-2.92.79-4.12,1.95-2.78,5.8-8.43,9.88-15.28.02-.03.03-.06.04-.08-7.59,2.49-21.45,5.22-37.26-.23-23.96-8.26-49.9-32.38-69.01-31.67,0,0-5.31.24-3.42-5.79,1.63-5.2,19.57-23.16,49.61-30.25-33.18-24.25-39.54-57.38-40.21-77.85-.81-24.66,19.71-55.49,28.15-70.2,8.45-14.72,26.65-45.04,30.54-56.77,3.89-11.73,5.35-17.7,5.35-17.7,3.76,11.32,5.48,15.85,7.76,41.1,2.28,25.25-13.65,56.78-12.67,85.4.44,13.02,14.14,29.22,29.24,37.4,8.61,4.66,17.76,6.33,24.04,6.9.32-.39.64-.77.96-1.15,4.73-5.56,9.67-9.96,13.77-12.73,13.13-8.88,31.42-9.14,57.3-6.55,18.64,1.86,36.14,6.18,49.81,6.35,13.67.18,29.15-4.23,50.33-6.35,25.88-2.59,44.17-2.32,57.3,6.55,4.11,2.78,9.04,7.18,13.77,12.73.32.38.64.76.96,1.15,6.27-.57,15.42-2.23,24.04-6.9,15.1-8.17,28.79-24.37,29.24-37.4.98-28.61-14.96-60.14-12.67-85.4,2.28-25.25,4-29.79,7.76-41.1,0,0,1.46,5.97,5.35,17.7s22.09,42.05,30.54,56.77c8.45,14.72,28.96,45.54,28.15,70.2-.67,20.48-7.03,53.61-40.21,77.85,30.04,7.08,47.98,25.05,49.61,30.25,1.89,6.03-3.42,5.79-3.42,5.79-19.11-.71-45.05,23.41-69.01,31.67-15.82,5.45-29.67,2.72-37.26.23.02.03.03.06.04.08,4.09,6.85,7.94,12.5,9.88,15.28.84,1.2,1.12,2.69.79,4.12l-9.92,42.55c-.87,3.73-3.42,6.84-6.91,8.42-8.35,3.76-24.09,11.68-31.99,20.99-.61,4.9-.74,9.07-.58,11.67.57,9.57,6.74,23.37,4.49,30.81-1.63,5.41-6.05,11.03-8.36,13.7,1.9,5.44,3.86,15.27-3.89,20.99-8.68,6.41-23.35,6.04-27.35,5.1-4-.94-7.43,4.45-10.41,10.41-2.98,5.96-4.46,11.43-16.73,11.43ZM533.02,356.83l-19.95,50.25c-2.79,7.02-10.39,10.77-17.66,8.76l-50.95-10.23c-12.34,17.22-27.05,32.26-43.47,44.77l11.67,50.69c2.25,7.19-1.31,14.91-8.21,17.88l-49.64,21.42c-6.93,2.99-14.98.27-18.67-6.3l-17.43-26.18c9.76-3.74,13.41-11.29,15.65-15.94.21-.44.42-.88.65-1.33.36-.72.68-1.34.97-1.86.94.04,1.83.05,2.6.05,6.84,0,19.8-1.1,29.79-8.48,9.03-6.67,12.92-17.3,11.07-29.39,2.61-3.77,5.08-8.2,6.48-12.84,2.51-8.32.3-17.18-1.83-25.75-.94-3.78-1.91-7.68-2.06-10.15-.05-.9-.05-2.37.06-4.25,5.15-4.5,13.73-9.61,23.93-14.21,7.59-3.42,13.25-10.31,15.14-18.42l9.92-42.55c.43-1.85.59-3.73.48-5.59,5.64-.55,11.19-1.76,16.59-3.62,11.36-3.92,22.32-10.47,32.91-16.82.83-.5,1.68-1,2.53-1.51-.31,5.19-.81,10.38-1.52,15.58l44.12,27.57c6.65,3.51,9.61,11.46,6.83,18.46Z"/>
        <path class="cls-2" d="M274.28,460.25c18.14-3.81,32.19-6.59,49.4-13.69,17.22-7.1,31.21.02,33.47-3.1,8.63-11.88.87-23.18-1.04-31.8-3.61-16.29,2.73-29.09-.83-35.68s-13.37-9.74-28.16-6.13c-14.79,3.61-32.09,6.34-32.09,6.34,8.04-3.96,16.44-7.57,24.53-10.39-4.62-2.7-16.42-7.18-43.87-7.18s-41.35,6.92-47.33,11.13c.13.03.28.07.4.1,7.96,2.05,30.96,6.34,30.96,6.34-10.52.41-28.38.86-47.69,4.47-19.32,3.61-26.11,19-24.68,27.13,1.43,8.14,1.89,16.4.19,28.58-1.7,12.18,7.64,21.51,16.73,25.1,9.1,3.59,51.86,2.58,70-1.22ZM324.91,381.58c24.52,1.6,27.52,16.73,21.53,32.51-6.35,16.74-31.59,11.61-43.97,10.72s-18.75,6.02-18.75,6.02c-4.59-18.7,16.66-50.85,41.19-49.25ZM197.82,424.67c-6.89-15.4-4.78-30.68,19.61-33.71s47.48,27.84,43.98,46.77c0,0-6.76-6.53-19.06-4.92-12.31,1.61-37.21,8.19-44.52-8.15Z"/>
        <path class="cls-2" d="M208.6,368.4c.49-.41,1.03-.84,1.61-1.29-2.75-4.59-3.27-9.38-3.33-11.94-1.23-8.45,2.49-16.95,6.45-23.25-11.99,4.2-42.33,13.36-49.9,1.61,0,0,3.43,1.57,15.82.13,0,0-19.21-5.58-22.94-19.51,0,0,9.96,7,18.06,9.62,0,0-12.92-11.16-19.69-37.46-4.03-.79-6.41-.9-6.41-.9,3.08,12.28-1.13,23.46-4.45,29.78-2.09,3.98-2.74,8.56-1.91,12.98l4.83,25.86c1.14,6.1,5.23,11.32,10.99,13.63,10.88,4.35,17.58,11.51,20.33,14.94-1.97-6.37-3.09-11.1-11.85-24.72,0,0,15.66,10.61,18.11,25.76,3.77-4.46,8.69-8.02,14.25-11.72,2.91-1.94,6.42-3,10.02-3.51Z"/>
        <path class="cls-2" d="M206.07,313.88c-4.65-2.74-16.22-11.22-16.22-11.22-2.8,17.88,20.87,13.96,16.22,11.22Z"/>
      </g>
      <g>
        <path class="cls-2" d="M615.15,146.85l5.61,5.61,5.61-5.61h17.38v-19l-3.31-3.31h-36.53v-27.07h47.76l19.15,19.15v88.29h-27.07v-30.99h-6.15l-12.92,12.08h-7.84l-12.92-12.08h-6.15v30.99h-27.07v-88.29l19.15-19.15h7.92v49.37h17.38Z"/>
        <path class="cls-2" d="M712.2,204.99h-9.15l-19.15-19.23v-19.84l5.61-5.61-5.61-5.61v-37.91l19.15-19.23h61.83l19.15,19.15v14.53h-27.07v-3.31l-3.31-3.31h-39.38l-3.31,3.31v15.53l12.07,12.92v7.85l-10.84,11.61v29.15ZM718.35,177.84c4.77,0,9.46,0,14.23.08h21.07l3.31-3.31v-3.31h27.07v14.53l-19.15,19.15h-46.53v-27.15Z"/>
        <path class="cls-2" d="M839.24,146.85l5.61,5.61,5.61-5.61h17.38v-19l-3.31-3.31h-36.53v-27.07h47.76l19.15,19.15v88.29h-27.07v-30.99h-6.15l-12.92,12.08h-7.84l-12.92-12.08h-6.15v30.99h-27.07v-88.29l19.15-19.15h7.92v49.37h17.38Z"/>
        <path class="cls-2" d="M937.37,134.32l12.07,13v7.77l-12.07,12.92v36.91h-27.07v-48.07l5.61-5.69-5.61-5.61v-48.07h80.98l19.15,19.15v69.06l-19.15,19.23h-47.76v-27.15h36.53l3.31-3.23v-46.68l-3.31-3.31h-39.38l-3.31,3.31v6.46Z"/>
        <path class="cls-2" d="M1052.1,97.56v36.84l3.08,3.31h18.53v27.07h-18.53l-3.08,3.31v6.54l3.31,3.31h39.38l3.31-3.31v-3.31h27.07v14.53l-19.15,19.15h-80.98v-48.07l5.61-5.69-5.61-5.61v-48.07h27.07ZM1106.01,97.56l19.15,19.15v14.53h-27.07v-3.31l-3.31-3.31h-36.53v-27.07h47.76Z"/>
        <path class="cls-2" d="M1162.99,134.32l12.07,13v7.77l-12.07,12.92v36.91h-27.07v-48.07l5.61-5.69-5.61-5.61v-28.92l19.15-19.15h7.92v36.84ZM1169.14,97.48h32.84l19.15,19.15v49.22l5.54,5.54,5.61-5.61v-49.14l19.15-19.15h46.91l19.23,19.15v28.92l-5.69,5.61,5.69,5.69v48.07h-27.07v-36.91l-12.07-12.92v-7.77l12.07-13v-6.46l-3.31-3.31h-24.53l-3.31,3.31v50.22c-6.61,6.15-13.23,12.3-19.84,18.53l-8.92,8.31h-7.77c-4.69-4.31-9.3-8.69-13.92-13-4.92-4.62-9.84-9.23-14.84-13.84v-50.22l-3.31-3.31h-21.61v-27.07Z"/>
        <path class="cls-2" d="M1367.7,174.54l3.31,3.31h9.84v26.99h-21l-19.23-19.15v-57.83l-3.31-3.31h-9.77v-27.07h20.99l19.15,19.15v57.91Z"/>
        <path class="cls-2" d="M1436.84,146.85l5.61,5.61,5.61-5.61h17.38v-19l-3.31-3.31h-36.53v-27.07h47.76l19.15,19.15v88.29h-27.07v-30.99h-6.15l-12.92,12.08h-7.84l-12.92-12.08h-6.15v30.99h-27.07v-88.29l19.15-19.15h7.92v49.37h17.38Z"/>
      </g>
      <g>
        <path class="cls-2" d="M568.25,215.4h238.14v64.33h-238.14v-64.33ZM719.95,329.63l-13.34,13.34,13.34,13.52v114.23h-64.33v-87.73l-28.51-30.7v-18.46l28.51-30.89v-8.59h64.33v35.27Z"/>
        <path class="cls-2" d="M931.03,398.53l7.86,7.86h23.39v64.15h-49.89l-45.69-45.51v-137.44l-7.86-7.86h-23.21v-64.33h49.89l45.51,45.51v137.62Z"/>
        <path class="cls-2" d="M1055.12,470.91h-21.75l-45.51-45.69v-47.15l13.34-13.34-13.34-13.34v-90.1l45.51-45.69h146.94l45.51,45.51v34.54h-64.33v-7.86l-7.86-7.86h-93.58l-7.86,7.86v36.92l28.69,30.7v18.64l-25.77,27.6v69.27ZM1069.75,406.39c11.33,0,22.48,0,33.81.18h50.08l7.86-7.86v-7.86h64.33v34.54l-45.51,45.51h-110.57v-64.52Z"/>
        <path class="cls-2" d="M1296.91,368.56l-45.51-45.51v-61.96l45.51-45.51h192.45v64.33h-165.77l-7.86,7.86v8.59l7.86,7.86h24.12l13.34,13.34,13.34-13.34h69.45l45.51,45.51v42.04h-64.33v-15.35l-7.86-7.86h-16.08l-30.89,28.69h-18.46l-30.7-28.69h-24.13ZM1489.36,406.58v18.82l-45.51,45.51h-192.45v-64.33h237.96Z"/>
      </g>
    </g>
  </g>
</svg>