<?xml version="1.0" encoding="utf-8"?>
<!-- Generator: Adobe Illustrator 25.2.1, SVG Export Plug-In . SVG Version: 6.00 Build 0)  -->
<svg version="1.1" id="Layer_2" xmlns="http://www.w3.org/2000/svg" xmlns:xlink="http://www.w3.org/1999/xlink" x="0px" y="0px"
	 viewBox="0 0 546 555.7" style="enable-background:new 0 0 546 555.7;" xml:space="preserve">
<style type="text/css">
	.st0{fill:none;}
	.st1{fill:#E3E1E4;}
</style>
<g>
	<path class="st0" d="M375.8,198.4c0,0,0-0.1,0-0.1C375.8,198.3,375.8,198.3,375.8,198.4z"/>
	<path class="st0" d="M170.2,198.3c0,0,0,0.1,0,0.1C170.2,198.3,170.2,198.3,170.2,198.3z"/>
	<path class="st0" d="M302.5,424.8c12.4,0.9,37.6,6,44-10.7c6-15.8,3-30.9-21.5-32.5s-45.8,30.5-41.2,49.2
		C283.7,430.8,290.1,423.9,302.5,424.8z"/>
	<path class="st0" d="M201.1,484c-10.9-3-18.1-7.7-25-12.8c-14.6-10.7-20.6-29.2-15.4-47c0.7-2.4,1-3.4,1.1-3.9c0-0.3-0.1-0.7-0.1-1
		c-0.3-2.5-0.8-6.8-0.8-15.2c0-2.2,0.1-4.4,0.3-6.5c-5.2-4.4-13.6-9.4-23.5-13.9c-7.6-3.4-13.2-10.3-15.1-18.4l-9.9-42.5
		c-0.4-1.9-0.6-3.7-0.5-5.6c-5.6-0.5-11.2-1.8-16.6-3.6c-11.4-3.9-22.3-10.5-32.9-16.8c-0.1,0-0.1-0.1-0.2-0.1
		c0.5,6.9,1.2,13.7,2.4,20.5l-43.3,28.7c-6.6,3.7-9.3,11.7-6.3,18.7l21.4,49.6c3,6.9,10.7,10.5,17.9,8.2l50.6-11.8
		c12.5,16.5,27.6,31.2,44.9,43.6l-10.2,51c-2,7.2,1.7,14.9,8.7,17.6l50.2,20c7,2.8,15-0.2,18.5-6.8l16.3-26.1
		c-2.9-0.3-5.8-0.7-8.8-1.2C211.8,506.4,205.2,494.3,201.1,484L201.1,484z"/>
	<path class="st0" d="M261.4,437.7c3.5-18.9-19.6-49.8-44-46.8s-26.5,18.3-19.6,33.7c7.3,16.3,32.2,9.8,44.5,8.1
		C254.6,431.2,261.4,437.8,261.4,437.7L261.4,437.7z"/>
	<path class="st0" d="M505,232.5l19.4-12.9c6.6-3.7,9.3-11.7,6.3-18.6L519,173.8c-3.1,16.9-10.2,35.6-25,52.6
		C498.1,228.4,501.8,230.5,505,232.5L505,232.5z"/>
	<path class="st0" d="M145.2,114.9c-11.1,8.4-21.4,18.1-30.8,28.7c3.6,5.7,10.1,12.4,18.3,16.9c3.8,2.1,7.8,3.3,11.5,4.1
		c4-4.1,8.2-7.7,12.2-10.4c10.6-7.1,23.9-10.5,41.8-10.5c7,0,15,0.5,25.2,1.5c8.4,0.8,16.3,2.1,23.9,3.3c9.2,1.5,17.8,2.9,24.6,2.9
		c0.2,0,0.4,0,0.6,0c6.4,0,13.9-1.2,22.6-2.7c7.4-1.2,15.8-2.6,25.4-3.6c10.2-1,18.2-1.5,25.2-1.5c17.9,0,31.2,3.3,41.8,10.5
		c4,2.7,8.2,6.3,12.2,10.4c3.6-0.8,7.7-2.1,11.5-4.1c9-4.9,15.8-12.4,19.2-18.4c-10.2-11.4-21.7-21.8-34.5-30.9l10.3-50.9
		c2-7.3-1.7-14.9-8.8-17.7l-50.2-19.9c-7-2.8-15,0.2-18.5,6.9l-27.5,44.1c-21.1-2.8-42.2-2.4-62.6,0.9l-28.7-43.3
		c-3.7-6.6-11.8-9.3-18.7-6.3l-49.6,21.4c-6.9,3-10.5,10.7-8.2,17.9L145.2,114.9L145.2,114.9z"/>
	<path class="st0" d="M49.9,226.4c-13.8-15.9-21-33.3-24.4-49.2l-12.5,31.4c-2.8,7,0.2,15,6.8,18.5l14.1,8.8
		C38,232.9,43.3,229.6,49.9,226.4L49.9,226.4z"/>
	<path class="st0" d="M333.5,476.2c4,0.9,18.7,1.3,27.4-5.1c7.8-5.7,5.8-15.6,3.9-21c2.3-2.7,6.7-8.3,8.4-13.7
		c2.2-7.5-3.9-21.2-4.5-30.8c-0.2-2.6,0-6.8,0.6-11.7c7.9-9.3,23.6-17.2,32-21c3.5-1.6,6-4.7,6.9-8.4l9.9-42.5
		c0.3-1.4,0-2.9-0.8-4.1c-2-2.8-5.8-8.4-9.9-15.3c0,0,0-0.1,0-0.1c7.6,2.5,21.5,5.2,37.3-0.2c24-8.3,49.9-32.4,69-31.7
		c0,0,5.3,0.2,3.4-5.8c-1.6-5.2-19.6-23.2-49.6-30.2c33.2-24.2,39.5-57.4,40.2-77.9c0.8-24.7-19.7-55.5-28.1-70.2
		c-8.5-14.7-26.6-45-30.5-56.8S443.5,12,443.5,12c-3.8,11.3-5.5,15.9-7.8,41.1s13.6,56.8,12.7,85.4c-0.4,13-14.1,29.2-29.2,37.4
		c-8.6,4.7-17.8,6.3-24,6.9c-0.3-0.4-0.6-0.8-1-1.1c-4.7-5.6-9.7-10-13.8-12.7c-13.1-8.9-31.4-9.1-57.3-6.6
		c-21.2,2.1-36.7,6.5-50.3,6.4s-31.2-4.5-49.8-6.4c-25.9-2.6-44.2-2.3-57.3,6.6c-4.1,2.8-9,7.2-13.8,12.7c-0.3,0.4-0.6,0.8-1,1.1
		c-6.3-0.6-15.4-2.2-24-6.9c-15.1-8.2-28.8-24.4-29.2-37.4c-1-28.6,15-60.1,12.7-85.4c-2.3-25.2-4-29.8-7.8-41.1c0,0-1.5,6-5.3,17.7
		s-22.1,42-30.5,56.8s-29,45.5-28.2,70.2c0.7,20.5,7,53.6,40.2,77.8c-30,7.1-48,25-49.6,30.2c-1.9,6,3.4,5.8,3.4,5.8
		c19.1-0.7,45,23.4,69,31.7c15.8,5.5,29.7,2.7,37.3,0.2c0,0,0,0.1,0,0.1c-4.1,6.9-7.9,12.5-9.9,15.3c-0.8,1.2-1.1,2.7-0.8,4.1
		l9.9,42.5c0.9,3.7,3.4,6.8,6.9,8.4c8.8,4,25.8,12.5,33.2,22.5c-0.9,3.2-1.4,6.9-1.4,11.2c0,18.8,2.4,13.3-0.8,24.3s-0.4,23.4,10,31
		c7,5.2,14,10,27.4,12c2.7,8,7.1,21.4,15.1,22.8c15.4,2.5,26.4,2.5,41.6,1.6c15.2-0.9,24.1-0.2,36.4-0.2s13.8-5.5,16.7-11.4
		S329.5,475.2,333.5,476.2L333.5,476.2z M404.2,328.2l-4.8,25.9c-1.1,6.1-5.2,11.3-11,13.6c-6.8,2.7-12,6.6-15.6,9.9
		c3-9.3,8-18.2,16-23c0,0-17.3,9.2-22,20.8c0,0-1.9-13.9-15.7-15.3c-4.1-0.4-9,0-14.3,1c-0.1,0-0.1-0.1-0.2-0.1l1-0.1
		c4.5-10.2,0-21.2-4.8-28.9c12,4.2,42.3,13.4,49.9,1.6c0,0-3.4,1.6-15.8,0.1c0,0,19.2-5.6,22.9-19.5c0,0-10,7-18.1,9.6
		c0,0,12.9-11.2,19.7-37.5c4-0.8,6.4-0.9,6.4-0.9c-3.1,12.3,1.1,23.5,4.5,29.8C404.4,319.2,405,323.7,404.2,328.2L404.2,328.2z
		 M355.4,320.2c8.8-4.1,9.9-17.9,10-24.3c6.1-3.3,11.8-5.6,16.6-7.1c-2.7,8.4-9.9,27.4-20.8,33c-11.7,6.1-29.9,1.9-36,0.3
		c-0.2-0.2-0.3-0.3-0.3-0.3s1.3-0.6,4.5-2.5C334.9,321.2,346.8,324.2,355.4,320.2L355.4,320.2z M340.1,313.4l15.8-11.8
		C360,298,356.2,321.7,340.1,313.4z M489.1,124.1c8.5,21.4,10.2,42.4,5.4,56.5c-9.6,28.1-29.2,45-38.6,51.8
		c-1.3-0.2-2.5-0.3-3.8-0.4c-18.8-1.7-31.4-2.8-40.2-4.1c0.2-2.9,0.2-5.7-0.1-8.5c36.5-1.3,47.8-29.7,47.8-29.7l3.1,7l9.2-12
		c0.9,2.1,2.8,7.9,2.8,7.9s6.3-7.9,8.3-16.3c8.8-37.9-21.2-86.1-27.3-100.1c-6.4-14.8-10.1-36.6-10.1-36.6
		C448.2,51.3,475,88.4,489.1,124.1L489.1,124.1z M453,155.6c8.9-18-5.5-80.4-5.5-80.4c7,16.3,21.9,46.3,26,64.4
		c5.2,23.5,0.7,35.6,0.7,35.6c-1-5.5-3.5-8.2-3.5-8.2l-7.5,14.7c-1.2-6.5-4.4-7.9-4.4-7.9s-10.8,34.3-48.6,36.6
		c-2-7.2-5.4-14.1-9.4-20.1C429.6,183.1,445.7,170.3,453,155.6L453,155.6z M93.1,155.6c7.3,14.7,23.3,27.4,52.2,34.7
		c-4,6-7.4,12.9-9.4,20.1c-45,0-47.8-39.9-47.8-39.9s-3.9,4-5.2,11.2L76,167c0,0-2.9,1.9-4.1,8.3c0,0-5.7-18.3-0.5-36
		c5.2-17.8,22.2-44.4,27.2-64C98.6,75.3,84.2,137.7,93.1,155.6L93.1,155.6z M51.6,180.6c-4.8-14.1-3.1-35.1,5.4-56.5
		c14.1-35.7,41-72.8,43.6-84.5c0,0-3.6,21.8-10.1,36.6C84.3,90.4,54,138,63.9,176.1c2.6,8.7,8.8,12.8,8.8,12.8s-0.2-1.8,0.3-2.8
		c0.5-1,1.3-1.4,1.3-1.4s0,0.1,0.1,0.2l0.1,0.1c0.1,0.2,0.3,0.5,0.5,0.9l0.5,0.7c0.1,0.1,0.1,0.2,0.2,0.2l1.1,1.8
		c0.4,0.6,0.8,1.3,1.3,2.1l0.9,1.4c1.1,1.8,2.4,3.8,3.9,6.2l0.5-1.2c0.2-0.5,0.4-1,0.6-1.5l1-2.3c0.2-0.4,0.4-0.8,0.5-1.2l0.3-0.6
		c0.2-0.5,0.4-0.9,0.5-1.1l0.1-0.3c0.1-0.1,0.1-0.2,0.1-0.2s11.3,28.4,47.8,29.7c-0.3,2.8-0.3,5.7-0.1,8.5
		c-8.8,1.3-21.5,2.4-40.2,4.1c-1.3,0.1-2.6,0.2-3.8,0.4C80.8,225.7,61.2,208.7,51.6,180.6L51.6,180.6z M136.9,270.8
		c-29.4-34.6-98.8-6.1-98.8-6.1s13.5-12.3,35-18.5c14.4-4.2,25.8-6.4,25.8-6.4c7.8-1.2,14.5-2.5,20.3-3.8
		c29-6.7,33.1-14.2,33.1-14.2c-2.7,2.4-6.5,4-12.7,5.3c0.1-3.7,1.3-13.8,10.4-27.3c11.5-17.1,24.6-26.4,38.4-28.1
		c13.8-1.8,26.3-1.6,47.6,2.3s31.8,6.3,37.8,6.3c6,0.1,15.1-2.5,36.5-6.3s33.8-4,47.6-2.3s26.9,11,38.4,28.1
		c9.1,13.5,10.3,23.7,10.4,27.3c-6.3-1.3-10-2.9-12.7-5.3c0,0,4.1,7.5,33.1,14.2c5.7,1.3,12.4,2.6,20.3,3.8c0,0,11.3,2.1,25.8,6.4
		c21.4,6.3,35,18.5,35,18.5s-69.3-28.4-98.8,6.1c-0.6-7.5-5.8-15.1-13.1-20.2c2.8-12-5.2-20.1-12.9-32.9
		c-7.4-12.4-7.5-18.4-7.5-19.2c-0.9,12,5.2,27,8.9,36c2,5.1,2,8.9,1.6,11.4c-3.1-0.9-6.3-1.4-9.6-1.2c-16.1,0.9-23.4,14.9-23.4,14.9
		c11.6-11.6,24-10.1,29.1-7.4s10.2,9.8,9.3,19s-25.4,16-25.4,16c2.7-4.4,15-13,15-13c-12.9-1.8-49.8,36.2-51.1,36.9
		c-1.3,0.6-11.7,6.7-16.6-2.4c-5.8-10.8,0.2-26.3,0.2-26.3c-14.7,14.7-10.9,26.8-5.6,33.9c-3.9,0.9-9.7,1.1-14.7-3.9
		c-10.1-10.1-9.6-28.7-4.6-36c0,0-18.5,17.2-2.1,38.5c-5-1.1-12.2-5.9-10.1-24.2c0,0-11.1,33.2,17.2,31.8c0.1,0.1,0.2,0.2,0.3,0.2
		c0,0,10.1,6.4,21.7,1c14.9,9.9,14.5,25.3,13,33.4c-7.2-3.5-17.6-7.2-30.5-9.1c-0.9-3.1-2.8-7.4-7.3-11.8c0,0,2.3,6.2,1.8,11.1
		c-5.9-0.6-12.2-0.7-19-0.3c-7.4,0.5-14.1,1.4-20.2,2.5c-1.8-5.1,1.3-13.4,1.3-13.4c-6.2,6.2-7.6,12-7.8,14.8
		c-12.6,3-21.9,7.1-28.7,11c-1.1-3.2-7.6-25.4,11.8-38.2c11.5,5.3,21.7-1,21.7-1c0.1-0.1,0.2-0.2,0.3-0.2
		c28.3,1.4,17.2-31.8,17.2-31.8c2.1,18.4-5.1,23.1-10.1,24.2c16.3-21.3-2.1-38.5-2.1-38.5c5,7.4,5.6,25.9-4.6,36
		c-5,5-10.9,4.8-14.7,3.9c5.3-7.2,9.1-19.2-5.6-33.9c0,0,6,15.5,0.2,26.3c-4.9,9.1-15.2,3-16.6,2.4s-38.2-38.6-51.1-36.9
		c0,0,12.3,8.6,15,13c0,0-24.5-6.7-25.4-16c-0.9-9.2,4.1-16.4,9.3-19.1c5.1-2.6,17.5-4.2,29.1,7.4c0,0-7.3-13.9-23.4-14.9
		c-3.2-0.2-6.4,0.3-9.6,1.2c-0.4-2.4-0.4-6.3,1.6-11.4c3.6-9,9.8-23.9,8.9-36c0,0.9-0.1,6.9-7.5,19.2c-7.6,12.8-15.7,20.9-12.9,32.9
		C142.7,255.7,137.4,263.3,136.9,270.8L136.9,270.8z M190.7,320.2c8.6,4,20.4,0.9,26-0.9c3.1,1.9,4.5,2.5,4.5,2.5s-0.1,0.1-0.3,0.3
		c-6,1.6-24.3,5.7-35.9-0.3c-10.9-5.7-18.1-24.7-20.8-33c4.9,1.5,10.5,3.8,16.6,7.1C180.8,302.3,181.9,316.1,190.7,320.2
		L190.7,320.2z M189.9,302.6c0,0,11.6,8.5,16.2,11.2S187.1,320.5,189.9,302.6z M184.3,383.6c-2.4-15.1-18.1-25.8-18.1-25.8
		c8.8,13.6,9.9,18.4,11.9,24.7c-2.8-3.4-9.4-10.6-20.3-14.9c-5.8-2.3-9.9-7.5-11-13.6l-4.8-25.9c-0.8-4.4-0.2-9,1.9-13
		c3.3-6.3,7.5-17.5,4.4-29.8c0,0,2.4,0.1,6.4,0.9c6.8,26.3,19.7,37.5,19.7,37.5c-8.1-2.6-18.1-9.6-18.1-9.6
		c3.7,13.9,22.9,19.5,22.9,19.5c-12.4,1.4-15.8-0.1-15.8-0.1c7.6,11.8,37.9,2.6,49.9-1.6c-4,6.3-7.7,14.8-6.4,23.2
		c0.1,2.6,0.6,7.4,3.3,11.9c-0.6,0.5-1.1,0.9-1.6,1.3c-3.6,0.5-7.1,1.6-10,3.5C193,375.6,188.1,379.2,184.3,383.6L184.3,383.6z
		 M204.3,461.5c-9.1-3.6-18.4-12.9-16.7-25.1c1.7-12.2,1.2-20.4-0.2-28.6c-1.4-8.1,5.4-23.5,24.7-27.1c19.3-3.6,37.2-4.1,47.7-4.5
		c0,0-23-4.3-31-6.3c-0.1,0-0.3-0.1-0.4-0.1c6-4.2,20-11.1,47.3-11.1s39.2,4.5,43.9,7.2c-8.1,2.8-16.5,6.4-24.5,10.4
		c0,0,17.3-2.7,32.1-6.3c14.8-3.6,24.6-0.5,28.2,6.1s-2.8,19.4,0.8,35.7c1.9,8.6,9.7,19.9,1,31.8c-2.3,3.1-16.3-4-33.5,3.1
		c-17.2,7.1-31.3,9.9-49.4,13.7S213.4,465.1,204.3,461.5L204.3,461.5z M315.5,483.3c-5,6.2-8.1,5.5-20.8,4.9
		c-12.7-0.6-34.3,2.3-56.9,1.2c-11.6-0.6-14.9-9.2-15.8-14.8c4.5,0.2,9.6,0.2,15.4-0.1c30.8-1.8,59.6-10.7,71.2-13.7
		c11.6-3,31.6-10,47.9-4.9c0.4,11.4-15.5,9.2-34.2,10.4c-20.6,1.4-29.2,10.8-29.2,10.8c7.5-4.6,33.3-5.1,33.3-5.1
		S320.5,477.1,315.5,483.3L315.5,483.3z"/>
	<path class="st0" d="M526.2,338.4l-44.1-27.6c0.7-5.2,1.2-10.4,1.5-15.6c-0.9,0.5-1.7,1-2.5,1.5c-10.6,6.3-21.5,12.9-32.9,16.8
		c-5.4,1.9-11,3.1-16.6,3.6c0.1,1.9,0,3.7-0.5,5.6l-9.9,42.5c-1.9,8.1-7.5,15-15.1,18.4c-10.2,4.6-18.8,9.7-23.9,14.2
		c-0.1,1.9-0.1,3.4-0.1,4.2c0.1,2.5,1.1,6.4,2.1,10.1c2.1,8.6,4.3,17.4,1.8,25.8c-1.4,4.6-3.9,9.1-6.5,12.8
		c1.9,12.1-2,22.7-11.1,29.4c-10,7.4-23,8.5-29.8,8.5c-0.8,0-1.7,0-2.6,0c-0.3,0.5-0.6,1.1-1,1.9c-0.2,0.5-0.4,0.9-0.6,1.3
		c-2.2,4.6-5.9,12.2-15.6,15.9l17.4,26.2c3.7,6.6,11.7,9.3,18.7,6.3l49.6-21.4c6.9-3,10.5-10.7,8.2-17.9L401,450.4
		c16.4-12.5,31.1-27.5,43.5-44.8l51,10.2c7.3,2,14.9-1.7,17.7-8.8l20-50.2C535.8,349.8,532.8,341.9,526.2,338.4L526.2,338.4z"/>
	<path class="st1" d="M71.9,175.3c1.2-6.4,4.1-8.3,4.1-8.3l6.9,14.7c1.3-7.2,5.2-11.2,5.2-11.2s2.9,39.9,47.8,39.9
		c2-7.2,5.4-14.1,9.4-20.1c-28.9-7.3-45-20-52.2-34.7c-8.9-18,5.5-80.4,5.5-80.4c-4.9,19.7-21.9,46.2-27.2,64
		C66.2,157,71.9,175.3,71.9,175.3L71.9,175.3z"/>
	<path class="st1" d="M458.7,173.9c0,0,3.2,1.4,4.4,7.9l7.5-14.7c0,0,2.4,2.8,3.5,8.2c0,0,4.6-12.1-0.7-35.6
		c-4-18.1-19-48.1-26-64.4c0,0,14.4,62.4,5.5,80.4c-7.3,14.7-23.4,27.4-52.2,34.7c4,6,7.4,12.9,9.4,20.1
		C447.9,208.2,458.7,173.9,458.7,173.9L458.7,173.9z"/>
	<path class="st1" d="M94,232.1c18.8-1.7,31.4-2.8,40.2-4.1c-0.2-2.9-0.2-5.7,0.1-8.5c-36.5-1.3-47.8-29.7-47.8-29.7s0,0.1-0.1,0.2
		l-0.1,0.3c-0.1,0.3-0.3,0.7-0.5,1.1l-0.3,0.6c-0.2,0.4-0.3,0.8-0.5,1.2l-1,2.3c-0.2,0.5-0.4,1-0.6,1.5l-0.5,1.2
		c-1.5-2.4-2.8-4.4-3.9-6.2l-0.9-1.4c-0.5-0.8-0.9-1.5-1.3-2.1l-1.1-1.8c-0.1-0.1-0.1-0.2-0.2-0.2l-0.5-0.7
		c-0.2-0.4-0.4-0.7-0.5-0.9l-0.1-0.1c-0.1-0.1-0.1-0.2-0.1-0.2s-0.8,0.4-1.3,1.4s-0.3,2.8-0.3,2.8s-6.2-4.1-8.8-12.8
		C54,138,84.3,90.5,90.5,76.2c6.4-14.8,10.1-36.6,10.1-36.6c-2.6,11.6-29.5,48.8-43.6,84.5c-8.5,21.4-10.2,42.4-5.4,56.5
		c9.6,28.1,29.2,45,38.6,51.8C91.4,232.3,92.7,232.2,94,232.1L94,232.1z"/>
	<path class="st1" d="M149.9,250.6c-2.8-12,5.2-20.1,12.9-32.9c7.4-12.4,7.5-18.4,7.5-19.2c0.9,12-5.2,27-8.9,36
		c-2,5.1-2,8.9-1.6,11.4c3.1-0.9,6.3-1.4,9.6-1.2c16.1,0.9,23.4,14.9,23.4,14.9c-11.6-11.6-24-10.1-29.1-7.4s-10.2,9.8-9.3,19
		c0.9,9.2,25.4,16,25.4,16c-2.7-4.4-15-13-15-13c12.9-1.8,49.8,36.2,51.1,36.9s11.7,6.7,16.6-2.4c5.8-10.8-0.2-26.3-0.2-26.3
		c14.7,14.7,10.9,26.8,5.6,33.9c3.9,0.9,9.7,1.1,14.7-3.9c10.1-10.1,9.6-28.7,4.6-36c0,0,18.5,17.2,2.1,38.5
		c5-1.1,12.2-5.9,10.1-24.2c0,0,11.1,33.2-17.2,31.8c-0.1,0.1-0.2,0.2-0.3,0.2c0,0-10.1,6.4-21.7,1c-19.3,12.8-12.8,35-11.8,38.2
		c6.7-3.9,16.1-8,28.7-11c0.3-2.8,1.6-8.6,7.8-14.8c0,0-3.1,8.3-1.3,13.4c6.1-1.1,12.8-2,20.2-2.5c6.8-0.5,13.1-0.3,19,0.3
		c0.5-5-1.8-11.1-1.8-11.1c4.5,4.5,6.4,8.7,7.3,11.8c12.9,1.9,23.2,5.7,30.5,9.1c1.5-8,1.9-23.5-13-33.4c-11.5,5.3-21.7-1-21.7-1
		c-0.1-0.1-0.2-0.2-0.3-0.2c-28.3,1.4-17.2-31.8-17.2-31.8c-2.1,18.4,5.1,23.1,10.1,24.2c-16.3-21.3,2.1-38.5,2.1-38.5
		c-5,7.4-5.6,25.9,4.6,36c5,5,10.9,4.8,14.7,3.9c-5.3-7.2-9.1-19.2,5.6-33.9c0,0-6,15.5-0.2,26.3c4.9,9.1,15.2,3,16.6,2.4
		s38.2-38.6,51.1-36.9c0,0-12.3,8.6-15,13c0,0,24.5-6.7,25.4-16c0.9-9.2-4.1-16.4-9.3-19.1s-17.5-4.2-29.1,7.4
		c0,0,7.3-13.9,23.4-14.9c3.2-0.2,6.5,0.3,9.6,1.2c0.4-2.4,0.4-6.3-1.6-11.4c-3.6-9-9.8-23.9-8.9-36c0,0.9,0.1,6.9,7.5,19.2
		c7.6,12.8,15.7,20.9,12.9,32.9c7.3,5.1,12.5,12.7,13.1,20.2c29.5-34.6,98.8-6.1,98.8-6.1s-13.5-12.3-35-18.5
		c-14.4-4.2-25.8-6.4-25.8-6.4c-7.8-1.2-14.5-2.5-20.3-3.8c-29-6.7-33.1-14.2-33.1-14.2c2.7,2.4,6.5,4,12.7,5.3
		c-0.1-3.7-1.3-13.8-10.4-27.3c-11.5-17.1-24.6-26.4-38.4-28.1s-26.3-1.6-47.6,2.3s-30.5,6.4-36.5,6.3c-6-0.1-16.5-2.5-37.8-6.3
		c-21.3-3.9-33.8-4-47.6-2.3c-13.8,1.8-26.9,11-38.4,28.1c-9.1,13.5-10.3,23.7-10.4,27.3c6.3-1.3,10-2.9,12.7-5.3
		c0,0-4.1,7.5-33.1,14.2c-5.7,1.3-12.4,2.6-20.3,3.8c0,0-11.3,2.1-25.8,6.4c-21.4,6.3-35,18.5-35,18.5s69.3-28.4,98.8,6.1
		C137.4,263.3,142.7,255.7,149.9,250.6L149.9,250.6z M375.8,198.3c0,0,0,0.1,0,0.1C375.8,198.3,375.8,198.3,375.8,198.3z
		 M170.3,198.4c0,0,0-0.1,0-0.1C170.3,198.3,170.3,198.3,170.3,198.4z"/>
	<path class="st1" d="M397.8,285.4c0,0-2.4,0.1-6.4,0.9c-6.8,26.3-19.7,37.5-19.7,37.5c8.1-2.6,18.1-9.6,18.1-9.6
		c-3.7,13.9-22.9,19.5-22.9,19.5c12.4,1.4,15.8-0.1,15.8-0.1c-7.6,11.8-37.9,2.6-49.9-1.6c4.8,7.7,9.3,18.7,4.8,28.9l-1,0.1
		c0.1,0,0.1,0.1,0.2,0.1c5.3-1,10.2-1.4,14.3-1c13.8,1.4,15.7,15.3,15.7,15.3c4.7-11.6,22-20.8,22-20.8c-8,4.8-13,13.7-16,23
		c3.6-3.3,8.8-7.2,15.6-9.9c5.8-2.3,9.9-7.5,11-13.6l4.8-25.9c0.8-4.4,0.2-9-1.9-13C398.9,308.9,394.7,297.7,397.8,285.4
		L397.8,285.4z"/>
	<path class="st1" d="M355.9,301.6l-15.8,11.8C356.2,321.7,360,298,355.9,301.6z"/>
	<path class="st1" d="M180.7,295.9c-6.1-3.3-11.8-5.6-16.6-7.1c2.7,8.4,9.9,27.4,20.8,33c11.7,6.1,29.9,1.9,35.9,0.3
		c0.2-0.2,0.3-0.3,0.3-0.3s-1.3-0.6-4.5-2.5c-5.6,1.9-17.4,5-26,0.9C181.9,316.1,180.7,302.3,180.7,295.9L180.7,295.9z"/>
	<path class="st1" d="M324.9,321.8c0,0,0.1,0.1,0.3,0.3c6,1.6,24.3,5.7,36-0.3c10.9-5.7,18.1-24.7,20.8-33
		c-4.9,1.5-10.5,3.8-16.6,7.1c0,6.4-1.2,20.2-10,24.3c-8.6,4-20.4,0.9-26-0.9C326.2,321.1,324.9,321.8,324.9,321.8L324.9,321.8z"/>
	<path class="st1" d="M482.9,176.3c-2,8.4-8.3,16.3-8.3,16.3s-1.9-5.7-2.8-7.9l-9.2,12l-3.1-7c0,0-11.3,28.4-47.8,29.7
		c0.3,2.8,0.3,5.7,0.1,8.5c8.8,1.3,21.5,2.4,40.2,4.1c1.3,0.1,2.6,0.2,3.8,0.4c9.4-6.8,29-23.8,38.6-51.8
		c4.8-14.1,3.1-35.1-5.4-56.5c-14.1-35.7-41-72.8-43.6-84.5c0,0,3.6,21.8,10.1,36.6C461.7,90.2,491.7,138.4,482.9,176.3L482.9,176.3
		z"/>
	<path class="st1" d="M293.1,477.2c0,0,8.6-9.4,29.2-10.8c18.8-1.3,34.6,1,34.2-10.4c-16.3-5.1-36.3,2-47.9,4.9
		c-11.6,3-40.4,11.9-71.2,13.7c-5.8,0.3-10.9,0.4-15.4,0.1c0.9,5.6,4.2,14.2,15.8,14.8c22.7,1.1,44.2-1.8,56.9-1.2
		c12.7,0.6,15.9,1.3,20.8-4.9c5-6.2,10.8-11.2,10.8-11.2S300.6,472.6,293.1,477.2L293.1,477.2z"/>
	<path class="st1" d="M532.2,328l-37.4-23.4c0.3-2.9,0.5-5.8,0.7-8.7c0.1-2.3-0.4-4.6-1.5-6.6c7.1-3.9,13.9-6.8,18.6-6.8
		c0.1,0,0.2,0,0.3,0c0.1,0,0.3,0,0.6,0c5.1,0,9.9-2.3,12.8-6.3c1.8-2.4,4.3-7.5,2-15.1c-2.3-7.3-11-14.9-16.4-18.9l18.7-12.5
		c11.7-6.8,16.4-21.2,11-33.6L530,169c-1.9-4.3-6.1-7.1-10.7-7.2c0.1-1.6,0.2-3.2,0.2-4.7c0.8-25.1-16.1-53.6-26.2-70.6
		c-1.3-2.2-2.5-4.2-3.5-6c-1.4-2.4-3-5.2-4.8-8.3c-8.2-14.1-21.9-37.6-24.7-46.2c-3.6-11-5.1-16.7-5.1-16.8
		c-1.3-5.2-5.8-8.9-11.2-9.1c-0.2,0-0.3,0-0.5,0c-5.1,0-9.8,3.3-11.4,8.2l-0.4,1.1c-3.9,11.7-5.7,18-8,42.7
		c-1.3,14.8,2.5,30.7,6.3,46c2.7,11,5.5,22.3,6.2,32.9c-8.4-9-17.5-17.3-27.2-24.8l8.7-43c3.4-13.1-3.4-26.6-16-31.6l-50.2-19.9
		c-3.2-1.3-6.5-1.9-9.9-1.9l0,0c-9.8,0-18.7,5.3-23.4,13.9l-23.2,37.3c-7.3-0.7-14.7-1.1-22-1.1c-9.6,0-19.2,0.6-28.7,1.9L220.1,25
		c-4.8-8.2-13.6-13.2-23.1-13.2c-3.6,0-7.2,0.7-10.6,2.2l-49.6,21.4c-7.2,3.1-12.3,8.9-14.7,15.8c-2.2-24-4-30.3-7.9-41.8l-0.4-1.1
		c-1.6-4.9-6.2-8.2-11.4-8.2c-0.2,0-0.3,0-0.5,0C96.7,0.2,92.1,4,90.9,9.2c0,0-1.4,5.8-5.1,16.8c-2.9,8.6-16.5,32.2-24.7,46.2
		c-1.8,3.1-3.4,5.9-4.8,8.3c-1,1.7-2.2,3.8-3.5,6c-4.8,8.1-11.5,19.3-16.8,31.2c-6.7,15.1-9.8,28-9.4,39.4c0.1,2.6,0.3,5.4,0.5,8.2
		c-0.2,0-0.4-0.1-0.5-0.1c-0.3,0-0.7,0-1,0c-4.9,0-9.3,3-11.1,7.6L1.8,204.1c-5,12.6,0.1,26.8,12,33.3l13.7,8.6
		c0.4,0.2,0.8,0.4,1.2,0.6c-4.6,4.1-9.5,9.4-11.1,14.6c-2.4,7.6,0.2,12.7,2,15.1c2.9,3.9,7.7,6.3,12.8,6.3c0.3,0,0.5,0,0.6,0
		c0.1,0,0.2,0,0.3,0c5,0,11.9,3.1,19.4,7.2c-1.5,2.2-2.3,4.9-2.2,7.7c0.3,4.6,0.8,9.3,1.4,13.9l-36.6,24.3
		c-11.6,6.8-16.4,21.2-11,33.6l21.4,49.6c4.3,9.8,13.9,16.1,24.5,16.1c2.5,0,5-0.4,7.5-1.1l42.8-10c10.7,13.1,22.9,24.9,36.3,35.2
		l-8.7,43.1c-3.4,13.1,3.4,26.5,16,31.5l50.2,20c3.2,1.2,6.5,1.9,9.9,1.9c9.8,0,18.7-5.3,23.4-13.8l16.1-25.8
		c1.1-1.7,1.7-3.6,1.8-5.6c2.8,0.1,5.7,0.2,8.6,0.2c4.7,0,9.7-0.2,16.4-0.5c5.1-0.3,9.9-0.4,15.1-0.4c3.4,0,6.5,0.1,9.8,0.1
		c3.4,0.1,6.9,0.1,10.7,0.1c0.2,0,0.4,0,0.6,0c0.3,1.6,0.9,3.2,1.8,4.5l17.2,25.9c4.8,8.2,13.6,13.2,23,13.2c3.7,0,7.2-0.7,10.6-2.2
		l49.6-21.4c12.4-5.4,18.8-19,15.1-32l-9.9-42.9c13.1-10.7,24.8-22.8,35.2-36.2l43.1,8.7c2.2,0.6,4.4,0.9,6.7,0.9
		c11,0,20.8-6.6,24.8-16.9l20-50.2C549.1,348.8,543.9,334.6,532.2,328L532.2,328z M530.7,200.9c3,6.9,0.3,15-6.3,18.6L505,232.5
		c-3.2-2-6.9-4.1-11.1-6.1c14.8-17,21.9-35.8,25.1-52.6L530.7,200.9L530.7,200.9z M141.6,46.4L191.2,25c6.9-3,15-0.2,18.7,6.3
		l28.7,43.3c20.5-3.4,41.5-3.8,62.6-0.9l27.5-44.1c3.5-6.7,11.5-9.6,18.5-6.9l50.2,19.9c7,2.8,10.8,10.4,8.8,17.7l-10.3,50.9
		c12.8,9.1,24.3,19.5,34.5,30.9c-3.4,6-10.2,13.5-19.2,18.4c-3.8,2.1-7.8,3.3-11.5,4.1c-4-4.1-8.2-7.7-12.2-10.4
		c-10.6-7.1-23.9-10.5-41.8-10.5c-7,0-15,0.5-25.2,1.5c-9.6,1-18,2.4-25.4,3.6c-8.7,1.4-16.3,2.7-22.6,2.7c-0.2,0-0.4,0-0.6,0
		c-6.8-0.1-15.4-1.5-24.6-2.9c-7.6-1.2-15.5-2.5-23.9-3.3c-10.2-1-18.2-1.5-25.2-1.5c-17.9,0-31.2,3.3-41.8,10.5
		c-4,2.7-8.2,6.3-12.2,10.4c-3.6-0.8-7.7-2.1-11.5-4.1c-8.2-4.4-14.7-11.1-18.3-16.9c9.3-10.7,19.6-20.3,30.7-28.7l-11.8-50.6
		C131.2,57.1,134.7,49.4,141.6,46.4L141.6,46.4z M116,98c2.4-9.9,4.9-20.1,6-30l9.8,42.2c-7.8,6.3-15.1,13.3-22,20.7
		C110.5,120.4,113.3,109.1,116,98z M19.9,227c-6.7-3.5-9.6-11.5-6.9-18.5l12.5-31.4c3.4,16,10.5,33.4,24.4,49.2
		c-6.6,3.2-11.9,6.5-15.9,9.4L19.9,227L19.9,227z M217.3,535.9c-3.5,6.7-11.5,9.6-18.5,6.8l-50.2-20c-7-2.8-10.8-10.4-8.7-17.6
		l10.2-51c-17.3-12.4-32.3-27.1-44.9-43.6l-50.6,11.8c-7.2,2.2-14.9-1.3-17.9-8.2l-21.4-49.6c-3-6.9-0.3-15,6.3-18.7l43.3-28.7
		c-1.1-6.8-1.9-13.6-2.4-20.5c0.1,0,0.1,0.1,0.2,0.1c10.6,6.3,21.5,12.9,32.9,16.8c5.4,1.9,10.9,3.1,16.6,3.6
		c-0.1,1.9,0.1,3.7,0.5,5.6l9.9,42.5c1.9,8.1,7.5,15,15.1,18.4c9.9,4.5,18.4,9.5,23.5,13.9c-0.2,2.1-0.3,4.2-0.3,6.5
		c0,8.4,0.5,12.7,0.8,15.2c0,0.3,0.1,0.7,0.1,1c-0.1,0.5-0.4,1.5-1.1,3.9c-5.3,17.8,0.8,36.2,15.4,47c6.9,5.1,14.1,9.9,25,12.8
		c4,10.4,10.7,22.4,23.8,24.5c3,0.5,5.9,0.9,8.8,1.2L217.3,535.9L217.3,535.9z M306.3,498c-12.3,0-21.2-0.6-36.4,0.2
		c-15.2,0.9-26.2,0.9-41.6-1.6c-7.9-1.3-12.4-14.8-15.1-22.8c-13.4-2-20.3-6.8-27.4-12c-10.4-7.6-13.3-20-10-31
		c3.3-11,0.8-5.5,0.8-24.3c0-4.3,0.5-7.9,1.4-11.2c-7.4-10-24.4-18.5-33.2-22.5c-3.5-1.6-6-4.7-6.9-8.4l-9.9-42.5
		c-0.3-1.4-0.1-2.9,0.8-4.1c1.9-2.8,5.8-8.4,9.9-15.3c0,0,0-0.1,0-0.1c-7.6,2.5-21.4,5.2-37.3-0.2c-24-8.3-49.9-32.4-69-31.7
		c0,0-5.3,0.2-3.4-5.8c1.6-5.2,19.6-23.2,49.6-30.2c-33.2-24.2-39.5-57.4-40.2-77.9c-0.8-24.7,19.7-55.5,28.2-70.2
		c8.4-14.7,26.7-45,30.5-56.8s5.3-17.7,5.3-17.7c3.8,11.3,5.5,15.9,7.8,41.1s-13.7,56.8-12.7,85.4c0.4,13,14.1,29.2,29.2,37.4
		c8.6,4.7,17.8,6.3,24,6.9c0.3-0.4,0.6-0.8,1-1.1c4.7-5.6,9.7-10,13.8-12.7c13.1-8.9,31.4-9.1,57.3-6.6c18.6,1.9,36.1,6.2,49.8,6.4
		c13.7,0.2,29.1-4.2,50.3-6.4c25.9-2.6,44.2-2.3,57.3,6.6c4.1,2.8,9,7.2,13.8,12.7c0.3,0.4,0.6,0.8,1,1.1c6.3-0.6,15.4-2.2,24-6.9
		c15.1-8.2,28.8-24.4,29.2-37.4c1-28.6-15-60.1-12.7-85.4c2.3-25.2,4-29.8,7.8-41.1c0,0,1.5,6,5.4,17.7s22.1,42,30.5,56.8
		s29,45.5,28.1,70.2c-0.7,20.5-7,53.6-40.2,77.8c30,7.1,48,25,49.6,30.2c1.9,6-3.4,5.8-3.4,5.8c-19.1-0.7-45,23.4-69,31.7
		c-15.8,5.5-29.7,2.7-37.3,0.2c0,0,0,0.1,0,0.1c4.1,6.9,7.9,12.5,9.9,15.3c0.8,1.2,1.1,2.7,0.8,4.1l-9.9,42.5
		c-0.9,3.7-3.4,6.8-6.9,8.4c-8.4,3.8-24.1,11.7-32,21c-0.6,4.9-0.7,9.1-0.6,11.7c0.6,9.6,6.7,23.4,4.5,30.8c-1.6,5.4-6,11-8.4,13.7
		c1.9,5.4,3.9,15.3-3.9,21c-8.7,6.4-23.4,6-27.4,5.1s-7.4,4.5-10.4,10.4S318.6,498,306.3,498L306.3,498z M533,356.8l-20,50.2
		c-2.8,7-10.4,10.8-17.7,8.8l-51-10.2c-12.3,17.2-27,32.3-43.5,44.8l11.7,50.7c2.2,7.2-1.3,14.9-8.2,17.9l-49.6,21.4
		c-6.9,3-15,0.3-18.7-6.3l-17.4-26.2c9.8-3.7,13.4-11.3,15.6-15.9c0.2-0.4,0.4-0.9,0.6-1.3c0.4-0.7,0.7-1.3,1-1.9c0.9,0,1.8,0,2.6,0
		c6.8,0,19.8-1.1,29.8-8.5c9-6.7,12.9-17.3,11.1-29.4c2.6-3.8,5.1-8.2,6.5-12.8c2.5-8.3,0.3-17.2-1.8-25.8
		c-0.9-3.8-1.9-7.7-2.1-10.1c0-0.9,0-2.4,0.1-4.2c5.1-4.5,13.7-9.6,23.9-14.2c7.6-3.4,13.2-10.3,15.1-18.4l9.9-42.5
		c0.4-1.9,0.6-3.7,0.5-5.6c5.6-0.5,11.2-1.8,16.6-3.6c11.4-3.9,22.3-10.5,32.9-16.8c0.8-0.5,1.7-1,2.5-1.5
		c-0.3,5.2-0.8,10.4-1.5,15.6l44.1,27.6C532.8,341.9,535.8,349.8,533,356.8L533,356.8z"/>
	<path class="st1" d="M274.3,460.2c18.1-3.8,32.2-6.6,49.4-13.7c17.2-7.1,31.2,0,33.5-3.1c8.6-11.9,0.9-23.2-1-31.8
		c-3.6-16.3,2.7-29.1-0.8-35.7s-13.4-9.7-28.2-6.1s-32.1,6.3-32.1,6.3c8-4,16.4-7.6,24.5-10.4c-4.6-2.7-16.4-7.2-43.9-7.2
		s-41.4,6.9-47.3,11.1c0.1,0,0.3,0.1,0.4,0.1c8,2,31,6.3,31,6.3c-10.5,0.4-28.4,0.9-47.7,4.5c-19.3,3.6-26.1,19-24.7,27.1
		c1.4,8.1,1.9,16.4,0.2,28.6s7.6,21.5,16.7,25.1C213.4,465.1,256.1,464,274.3,460.2L274.3,460.2z M324.9,381.6
		c24.5,1.6,27.5,16.7,21.5,32.5c-6.4,16.7-31.6,11.6-44,10.7s-18.8,6-18.8,6C279.1,412.1,300.4,380,324.9,381.6z M197.8,424.7
		c-6.9-15.4-4.8-30.7,19.6-33.7s47.5,27.8,44,46.8c0,0-6.8-6.5-19.1-4.9C230,434.4,205.1,441,197.8,424.7L197.8,424.7z"/>
	<path class="st1" d="M208.6,368.4c0.5-0.4,1-0.8,1.6-1.3c-2.8-4.6-3.3-9.4-3.3-11.9c-1.2-8.5,2.5-17,6.4-23.2
		c-12,4.2-42.3,13.4-49.9,1.6c0,0,3.4,1.6,15.8,0.1c0,0-19.2-5.6-22.9-19.5c0,0,10,7,18.1,9.6c0,0-12.9-11.2-19.7-37.5
		c-4-0.8-6.4-0.9-6.4-0.9c3.1,12.3-1.1,23.5-4.4,29.8c-2.1,4-2.7,8.6-1.9,13l4.8,25.9c1.1,6.1,5.2,11.3,11,13.6
		c10.9,4.4,17.6,11.5,20.3,14.9c-2-6.4-3.1-11.1-11.9-24.7c0,0,15.7,10.6,18.1,25.8c3.8-4.5,8.7-8,14.2-11.7
		C201.5,370,205,368.9,208.6,368.4L208.6,368.4z"/>
	<path class="st1" d="M206.1,313.9c-4.6-2.7-16.2-11.2-16.2-11.2C187.1,320.5,210.7,316.6,206.1,313.9z"/>
</g>
</svg>
